<svg xmlns="http://www.w3.org/2000/svg" xmlns:xlink="http://www.w3.org/1999/xlink" width="500" zoomAndPan="magnify" viewBox="0 0 375 374.999991" height="500" preserveAspectRatio="xMidYMid meet" version="1.2"><defs><clipPath id="9e667268c2"><path d="M 3 150 L 78 150 L 78 224.90625 L 3 224.90625 Z M 3 150 "/></clipPath><clipPath id="d6cad5220b"><path d="M 14 157 L 78 157 L 78 224.90625 L 14 224.90625 Z M 14 157 "/></clipPath></defs><g id="af8d545999"><g clip-rule="nonzero" clip-path="url(#9e667268c2)"><path style=" stroke:none;fill-rule:nonzero;fill:#1a20f0;fill-opacity:1;" d="M 77.140625 188.785156 C 76.375 209.050781 59.328125 224.859375 39.066406 224.085938 C 18.808594 223.320312 2.996094 206.273438 3.765625 186.007812 C 4.539062 165.753906 21.578125 149.941406 41.839844 150.710938 C 62.097656 151.484375 77.910156 168.523438 77.140625 188.785156 Z M 62.511719 188.234375 C 62.539062 187.511719 62.53125 186.789062 62.488281 186.066406 C 62.445312 185.34375 62.367188 184.628906 62.253906 183.914062 C 62.136719 183.199219 61.988281 182.492188 61.804688 181.792969 C 61.621094 181.09375 61.40625 180.40625 61.152344 179.726562 C 60.902344 179.050781 60.617188 178.386719 60.300781 177.734375 C 59.984375 177.085938 59.636719 176.453125 59.257812 175.835938 C 58.878906 175.222656 58.472656 174.625 58.035156 174.050781 C 57.597656 173.472656 57.132812 172.921875 56.640625 172.390625 C 56.152344 171.859375 55.632812 171.355469 55.09375 170.875 C 54.550781 170.394531 53.988281 169.945312 53.402344 169.519531 C 52.816406 169.097656 52.214844 168.703125 51.589844 168.335938 C 50.964844 167.972656 50.324219 167.640625 49.667969 167.335938 C 49.011719 167.035156 48.339844 166.765625 47.65625 166.53125 C 46.972656 166.292969 46.28125 166.09375 45.578125 165.925781 C 44.871094 165.757812 44.164062 165.625 43.445312 165.527344 C 42.730469 165.429688 42.011719 165.367188 41.289062 165.339844 C 40.566406 165.3125 39.84375 165.320312 39.121094 165.363281 C 38.402344 165.40625 37.683594 165.484375 36.96875 165.597656 C 36.253906 165.714844 35.546875 165.863281 34.847656 166.046875 C 34.148438 166.230469 33.460938 166.445312 32.78125 166.699219 C 32.105469 166.949219 31.441406 167.234375 30.789062 167.550781 C 30.140625 167.867188 29.507812 168.214844 28.890625 168.59375 C 28.277344 168.96875 27.679688 169.378906 27.105469 169.816406 C 26.527344 170.253906 25.976562 170.71875 25.445312 171.207031 C 24.914062 171.699219 24.410156 172.214844 23.929688 172.757812 C 23.453125 173.300781 23 173.863281 22.574219 174.449219 C 22.152344 175.035156 21.757812 175.636719 21.390625 176.261719 C 21.027344 176.886719 20.695312 177.527344 20.390625 178.183594 C 20.089844 178.839844 19.820312 179.511719 19.585938 180.195312 C 19.351562 180.878906 19.148438 181.570312 18.980469 182.273438 C 18.8125 182.976562 18.679688 183.6875 18.582031 184.40625 C 18.484375 185.121094 18.421875 185.839844 18.394531 186.5625 C 18.367188 187.285156 18.375 188.007812 18.417969 188.730469 C 18.460938 189.449219 18.539062 190.167969 18.65625 190.882812 C 18.769531 191.597656 18.917969 192.304688 19.101562 193.003906 C 19.285156 193.703125 19.5 194.390625 19.753906 195.066406 C 20.003906 195.746094 20.289062 196.410156 20.605469 197.058594 C 20.921875 197.710938 21.269531 198.34375 21.648438 198.960938 C 22.027344 199.574219 22.433594 200.171875 22.871094 200.746094 C 23.308594 201.324219 23.773438 201.875 24.265625 202.40625 C 24.753906 202.9375 25.273438 203.441406 25.8125 203.921875 C 26.355469 204.398438 26.917969 204.851562 27.503906 205.277344 C 28.089844 205.699219 28.695312 206.09375 29.316406 206.460938 C 29.941406 206.824219 30.582031 207.15625 31.238281 207.460938 C 31.898438 207.761719 32.566406 208.03125 33.25 208.265625 C 33.933594 208.5 34.628906 208.703125 35.332031 208.871094 C 36.035156 209.039062 36.742188 209.171875 37.460938 209.269531 C 38.175781 209.367188 38.894531 209.429688 39.617188 209.457031 C 40.339844 209.484375 41.0625 209.476562 41.785156 209.433594 C 42.507812 209.390625 43.222656 209.3125 43.9375 209.195312 C 44.652344 209.082031 45.359375 208.933594 46.058594 208.75 C 46.757812 208.566406 47.445312 208.347656 48.125 208.097656 C 48.800781 207.847656 49.464844 207.5625 50.117188 207.246094 C 50.765625 206.929688 51.398438 206.582031 52.015625 206.203125 C 52.628906 205.824219 53.226562 205.417969 53.800781 204.980469 C 54.378906 204.542969 54.929688 204.078125 55.460938 203.585938 C 55.992188 203.097656 56.496094 202.578125 56.976562 202.039062 C 57.457031 201.496094 57.90625 200.933594 58.332031 200.347656 C 58.753906 199.761719 59.148438 199.15625 59.515625 198.535156 C 59.878906 197.910156 60.210938 197.269531 60.515625 196.613281 C 60.816406 195.953125 61.085938 195.285156 61.320312 194.601562 C 61.554688 193.917969 61.757812 193.222656 61.925781 192.519531 C 62.09375 191.816406 62.226562 191.109375 62.324219 190.390625 C 62.421875 189.675781 62.484375 188.957031 62.511719 188.234375 Z M 62.511719 188.234375 "/></g><path style=" stroke:none;fill-rule:nonzero;fill:#f84936;fill-opacity:1;" d="M 50.828125 167.910156 L 50.796875 167.890625 L 50.785156 167.890625 C 50.648438 167.816406 50.507812 167.742188 50.367188 167.675781 C 50.296875 167.636719 50.222656 167.601562 50.152344 167.566406 C 49.824219 167.40625 49.492188 167.253906 49.152344 167.105469 C 49.046875 167.058594 48.941406 167.015625 48.832031 166.972656 L 48.609375 166.882812 C 48.570312 166.867188 48.527344 166.851562 48.484375 166.835938 L 48.433594 166.816406 C 48.320312 166.769531 48.203125 166.726562 48.085938 166.683594 C 48.019531 166.65625 47.960938 166.636719 47.894531 166.613281 C 47.886719 166.609375 47.875 166.605469 47.863281 166.601562 C 47.746094 166.5625 47.628906 166.519531 47.511719 166.480469 L 47.496094 166.480469 L 47.375 166.441406 L 47.292969 166.414062 L 47.132812 166.363281 L 46.894531 166.292969 C 46.867188 166.28125 46.839844 166.273438 46.808594 166.265625 L 46.796875 166.265625 C 46.644531 166.21875 46.496094 166.175781 46.347656 166.136719 L 46.097656 166.066406 C 45.992188 166.039062 45.878906 166.007812 45.761719 165.980469 L 45.65625 165.957031 C 45.597656 165.9375 45.539062 165.925781 45.480469 165.914062 L 45.414062 165.898438 L 45.304688 165.875 L 45.050781 165.820312 L 44.746094 165.757812 L 44.492188 165.707031 C 44.355469 165.679688 44.222656 165.65625 44.089844 165.636719 C 44.054688 165.636719 44.023438 165.625 43.992188 165.621094 L 43.945312 165.621094 C 43.839844 165.601562 43.734375 165.585938 43.625 165.570312 L 43.613281 165.570312 L 43.503906 165.554688 C 43.457031 165.554688 43.40625 165.542969 43.355469 165.535156 C 43.335938 165.53125 43.316406 165.53125 43.292969 165.527344 L 43.179688 165.515625 L 42.929688 165.484375 L 42.5625 165.445312 C 42.460938 165.4375 42.367188 165.425781 42.265625 165.421875 L 42.246094 165.421875 C 42.109375 165.410156 41.976562 165.398438 41.839844 165.390625 C 41.652344 165.378906 41.46875 165.367188 41.285156 165.363281 C 41 165.351562 40.714844 165.347656 40.433594 165.347656 L 40 165.347656 C 39.945312 165.347656 39.890625 165.347656 39.839844 165.347656 C 39.660156 165.347656 39.480469 165.355469 39.300781 165.367188 C 39.117188 165.375 38.957031 165.386719 38.789062 165.398438 C 38.660156 165.398438 38.527344 165.417969 38.394531 165.429688 C 38.382812 165.433594 38.371094 165.433594 38.359375 165.429688 C 38.300781 165.429688 38.242188 165.441406 38.1875 165.445312 C 38.089844 165.445312 37.996094 165.464844 37.902344 165.476562 C 37.835938 165.476562 37.773438 165.492188 37.710938 165.5 L 37.566406 165.519531 C 37.5 165.519531 37.4375 165.535156 37.371094 165.546875 C 37.269531 165.558594 37.171875 165.570312 37.070312 165.589844 C 36.964844 165.609375 36.820312 165.628906 36.695312 165.652344 L 36.585938 165.671875 C 36.457031 165.691406 36.332031 165.714844 36.203125 165.742188 C 36.121094 165.757812 36.042969 165.769531 35.960938 165.792969 L 35.691406 165.847656 C 35.691406 165.847656 35.683594 165.847656 35.675781 165.847656 L 35.453125 165.898438 L 35.425781 165.898438 C 35.308594 165.921875 35.195312 165.949219 35.082031 165.980469 C 34.921875 166.019531 34.753906 166.0625 34.59375 166.109375 L 34.476562 166.140625 C 34.335938 166.179688 34.195312 166.21875 34.0625 166.261719 C 33.902344 166.308594 33.730469 166.363281 33.570312 166.421875 C 33.453125 166.460938 33.34375 166.496094 33.230469 166.539062 L 32.933594 166.644531 L 32.566406 166.78125 L 32.222656 166.914062 C 32.089844 166.96875 31.960938 167.023438 31.832031 167.074219 C 31.726562 167.121094 31.621094 167.164062 31.511719 167.210938 C 31.488281 167.21875 31.46875 167.230469 31.445312 167.238281 L 26.269531 153.523438 C 26.40625 153.46875 26.542969 153.410156 26.679688 153.355469 C 26.816406 153.300781 26.953125 153.246094 27.089844 153.195312 C 27.175781 153.160156 27.25 153.128906 27.339844 153.097656 C 27.472656 153.046875 27.605469 152.996094 27.742188 152.949219 C 27.875 152.898438 28.007812 152.851562 28.144531 152.804688 C 28.207031 152.777344 28.277344 152.753906 28.347656 152.730469 C 28.476562 152.683594 28.605469 152.640625 28.734375 152.597656 C 28.757812 152.585938 28.785156 152.578125 28.8125 152.570312 C 28.9375 152.527344 29.066406 152.484375 29.195312 152.445312 C 29.324219 152.40625 29.476562 152.355469 29.621094 152.3125 C 29.761719 152.269531 29.863281 152.234375 29.988281 152.199219 C 29.992188 152.199219 30 152.199219 30.003906 152.199219 C 30.445312 152.070312 30.890625 151.945312 31.339844 151.832031 L 31.785156 151.71875 C 31.933594 151.683594 32.078125 151.648438 32.226562 151.617188 L 32.734375 151.503906 C 32.902344 151.464844 33.074219 151.429688 33.246094 151.398438 C 33.539062 151.339844 33.828125 151.285156 34.125 151.238281 L 34.5625 151.160156 L 35.042969 151.089844 C 35.296875 151.050781 35.554688 151.015625 35.808594 150.984375 L 35.96875 150.964844 L 36.019531 150.964844 C 36.25 150.933594 36.480469 150.910156 36.714844 150.886719 C 36.867188 150.871094 37.019531 150.855469 37.175781 150.84375 L 37.632812 150.804688 L 37.6875 150.804688 C 37.894531 150.789062 38.105469 150.777344 38.3125 150.761719 L 38.339844 150.761719 C 38.527344 150.753906 38.71875 150.742188 38.90625 150.738281 C 39 150.738281 39.09375 150.726562 39.191406 150.726562 L 39.695312 150.710938 L 39.75 150.710938 C 39.976562 150.710938 40.199219 150.710938 40.425781 150.710938 C 40.894531 150.710938 41.367188 150.71875 41.839844 150.738281 C 42.039062 150.738281 42.238281 150.753906 42.4375 150.765625 C 42.636719 150.777344 42.808594 150.785156 42.992188 150.796875 L 43.0625 150.796875 C 43.203125 150.808594 43.347656 150.820312 43.488281 150.832031 C 43.667969 150.847656 43.851562 150.863281 44.035156 150.878906 C 44.371094 150.914062 44.710938 150.949219 45.046875 150.992188 L 45.132812 151.003906 L 45.660156 151.074219 L 46.1875 151.152344 C 46.324219 151.171875 46.460938 151.195312 46.597656 151.21875 L 46.839844 151.261719 C 47.136719 151.3125 47.433594 151.367188 47.726562 151.421875 L 47.777344 151.433594 L 48.046875 151.488281 L 48.300781 151.542969 C 48.460938 151.578125 48.628906 151.613281 48.792969 151.652344 C 48.800781 151.652344 48.808594 151.652344 48.816406 151.652344 C 48.992188 151.695312 49.164062 151.734375 49.339844 151.78125 C 49.515625 151.824219 49.703125 151.871094 49.886719 151.921875 C 50.246094 152.015625 50.605469 152.113281 50.964844 152.222656 L 51 152.234375 L 51.382812 152.351562 C 51.742188 152.460938 52.101562 152.578125 52.457031 152.703125 C 52.617188 152.757812 52.777344 152.8125 52.925781 152.863281 C 53.074219 152.917969 53.265625 152.988281 53.433594 153.050781 C 53.566406 153.101562 53.699219 153.152344 53.828125 153.203125 C 54.191406 153.34375 54.550781 153.492188 54.90625 153.644531 C 55.15625 153.75 55.402344 153.859375 55.648438 153.964844 C 55.851562 154.058594 56.054688 154.148438 56.253906 154.246094 C 56.382812 154.308594 56.511719 154.367188 56.636719 154.433594 L 56.683594 154.453125 L 57.1875 154.707031 C 57.277344 154.753906 57.367188 154.800781 57.453125 154.847656 C 57.542969 154.894531 57.59375 154.917969 57.660156 154.957031 C 57.789062 155.023438 57.914062 155.089844 58.042969 155.160156 L 58.105469 155.195312 C 58.132812 155.210938 58.167969 155.226562 58.195312 155.246094 L 58.539062 155.4375 C 58.699219 155.527344 58.859375 155.617188 59.011719 155.710938 C 59.164062 155.804688 59.308594 155.886719 59.460938 155.976562 C 59.609375 156.066406 59.753906 156.160156 59.902344 156.25 C 60.046875 156.34375 60.15625 156.410156 60.28125 156.492188 C 60.308594 156.507812 60.339844 156.527344 60.367188 156.550781 C 60.503906 156.636719 60.640625 156.726562 60.773438 156.816406 C 60.910156 156.90625 61.0625 157.007812 61.207031 157.105469 C 61.351562 157.207031 61.492188 157.304688 61.632812 157.402344 L 52.222656 168.714844 L 52.046875 168.609375 C 52.03125 168.597656 52.015625 168.589844 52 168.578125 L 51.730469 168.417969 C 51.539062 168.308594 51.347656 168.195312 51.152344 168.085938 Z M 50.828125 167.910156 "/><g clip-rule="nonzero" clip-path="url(#d6cad5220b)"><path style=" stroke:none;fill-rule:nonzero;fill:#ffc023;fill-opacity:1;" d="M 61.632812 157.402344 L 52.226562 168.71875 C 53.230469 169.351562 54.179688 170.0625 55.070312 170.851562 C 55.960938 171.636719 56.78125 172.492188 57.535156 173.410156 C 58.289062 174.328125 58.960938 175.304688 59.558594 176.332031 C 60.152344 177.359375 60.664062 178.429688 61.085938 179.542969 C 61.507812 180.652344 61.839844 181.789062 62.078125 182.953125 C 62.316406 184.117188 62.460938 185.292969 62.511719 186.480469 C 62.558594 187.667969 62.515625 188.851562 62.371094 190.03125 C 62.230469 191.214844 61.996094 192.375 61.664062 193.515625 C 61.335938 194.65625 60.917969 195.765625 60.40625 196.839844 C 59.898438 197.914062 59.308594 198.941406 58.632812 199.921875 C 57.960938 200.898438 57.210938 201.816406 56.390625 202.675781 C 55.566406 203.53125 54.679688 204.320312 53.730469 205.035156 C 52.78125 205.75 51.78125 206.382812 50.730469 206.9375 C 49.675781 207.488281 48.585938 207.953125 47.460938 208.332031 C 46.332031 208.710938 45.183594 208.992188 44.011719 209.183594 C 42.835938 209.378906 41.65625 209.472656 40.46875 209.472656 C 40.183594 209.472656 39.902344 209.472656 39.617188 209.457031 C 38.164062 209.40625 36.734375 209.210938 35.320312 208.871094 C 33.90625 208.535156 32.539062 208.0625 31.21875 207.457031 C 29.898438 206.847656 28.652344 206.117188 27.476562 205.261719 C 26.300781 204.40625 25.222656 203.445312 24.238281 202.375 L 14.824219 213.691406 C 16.4375 215.269531 18.183594 216.683594 20.054688 217.9375 C 21.929688 219.191406 23.902344 220.261719 25.976562 221.152344 C 28.046875 222.039062 30.183594 222.730469 32.382812 223.222656 C 34.585938 223.71875 36.8125 224.007812 39.066406 224.089844 C 39.539062 224.105469 40.007812 224.117188 40.476562 224.117188 C 60.113281 224.117188 76.390625 208.578125 77.140625 188.789062 C 77.199219 187.265625 77.164062 185.746094 77.035156 184.230469 C 76.902344 182.714844 76.679688 181.210938 76.359375 179.722656 C 76.042969 178.234375 75.632812 176.769531 75.132812 175.332031 C 74.632812 173.894531 74.046875 172.492188 73.375 171.125 C 72.699219 169.761719 71.941406 168.445312 71.105469 167.171875 C 70.265625 165.902344 69.351562 164.6875 68.363281 163.53125 C 67.371094 162.375 66.3125 161.285156 65.1875 160.257812 C 64.0625 159.234375 62.878906 158.28125 61.632812 157.402344 Z M 61.632812 157.402344 "/></g><g style="fill:#000000;fill-opacity:1;"><g transform="translate(84.231051, 218.173681)"><path style="stroke:none" d="M 25.375 -11.34375 C 28.613281 -11.34375 30.972656 -11.9375 32.453125 -13.125 C 33.941406 -14.320312 34.6875 -16.160156 34.6875 -18.640625 C 34.6875 -22.691406 31.71875 -24.71875 25.78125 -24.71875 L 22.453125 -24.71875 C 21.960938 -24.71875 21.71875 -24.476562 21.71875 -24 L 21.71875 -12.484375 C 21.71875 -11.992188 21.9375 -11.695312 22.375 -11.59375 C 23.34375 -11.425781 24.34375 -11.34375 25.375 -11.34375 Z M 21.71875 -46.6875 L 21.71875 -36.796875 C 21.71875 -36.316406 21.960938 -36.078125 22.453125 -36.078125 L 24.15625 -36.078125 C 30.375 -36.078125 33.484375 -38.101562 33.484375 -42.15625 C 33.484375 -45.9375 30.78125 -47.828125 25.375 -47.828125 C 24.34375 -47.828125 23.34375 -47.742188 22.375 -47.578125 C 21.9375 -47.472656 21.71875 -47.175781 21.71875 -46.6875 Z M 35.984375 -31.125 C 40.148438 -30.582031 43.472656 -28.988281 45.953125 -26.34375 C 48.441406 -23.695312 49.6875 -20.585938 49.6875 -17.015625 C 49.6875 -10.910156 47.703125 -6.410156 43.734375 -3.515625 C 39.765625 -0.628906 33.375 0.8125 24.5625 0.8125 C 20.070312 0.8125 15.394531 0.59375 10.53125 0.15625 C 9.238281 0.0507812 8.144531 -0.5 7.25 -1.5 C 6.363281 -2.5 5.921875 -3.675781 5.921875 -5.03125 L 5.921875 -54.15625 C 5.921875 -55.445312 6.351562 -56.601562 7.21875 -57.625 C 8.082031 -58.65625 9.160156 -59.226562 10.453125 -59.34375 C 15.046875 -59.769531 19.476562 -59.984375 23.75 -59.984375 C 39.957031 -59.984375 48.0625 -54.847656 48.0625 -44.578125 C 48.0625 -41.117188 46.96875 -38.1875 44.78125 -35.78125 C 42.59375 -33.382812 39.660156 -31.890625 35.984375 -31.296875 C 35.929688 -31.296875 35.90625 -31.265625 35.90625 -31.203125 C 35.90625 -31.148438 35.929688 -31.125 35.984375 -31.125 Z M 35.984375 -31.125 "/></g></g><g style="fill:#000000;fill-opacity:1;"><g transform="translate(136.183102, 218.173681)"><path style="stroke:none" d="M 41.015625 -42.15625 C 42.253906 -42.15625 43.332031 -41.691406 44.25 -40.765625 C 45.175781 -39.847656 45.640625 -38.769531 45.640625 -37.53125 L 45.640625 -4.625 C 45.640625 -3.375 45.175781 -2.289062 44.25 -1.375 C 43.332031 -0.457031 42.253906 0 41.015625 0 L 35.5 0 C 34.207031 0 33.097656 -0.441406 32.171875 -1.328125 C 31.253906 -2.222656 30.769531 -3.320312 30.71875 -4.625 L 30.71875 -5.265625 C 30.71875 -5.316406 30.691406 -5.34375 30.640625 -5.34375 C 30.535156 -5.34375 30.484375 -5.316406 30.484375 -5.265625 C 27.128906 -1.210938 22.992188 0.8125 18.078125 0.8125 C 13.316406 0.8125 9.894531 -0.507812 7.8125 -3.15625 C 5.738281 -5.8125 4.703125 -10.429688 4.703125 -17.015625 L 4.703125 -37.53125 C 4.703125 -38.769531 5.160156 -39.847656 6.078125 -40.765625 C 6.992188 -41.691406 8.078125 -42.15625 9.328125 -42.15625 L 15.078125 -42.15625 C 16.316406 -42.15625 17.394531 -41.691406 18.3125 -40.765625 C 19.238281 -39.847656 19.703125 -38.769531 19.703125 -37.53125 L 19.703125 -17.828125 C 19.703125 -15.347656 20.035156 -13.644531 20.703125 -12.71875 C 21.378906 -11.800781 22.53125 -11.34375 24.15625 -11.34375 C 25.664062 -11.34375 27.054688 -11.9375 28.328125 -13.125 C 29.597656 -14.320312 30.234375 -15.617188 30.234375 -17.015625 L 30.234375 -37.53125 C 30.234375 -38.769531 30.691406 -39.847656 31.609375 -40.765625 C 32.535156 -41.691406 33.617188 -42.15625 34.859375 -42.15625 Z M 41.015625 -42.15625 "/></g></g><g style="fill:#000000;fill-opacity:1;"><g transform="translate(186.919429, 218.173681)"><path style="stroke:none" d="M 34.296875 -20.921875 L 43.53125 -4.046875 C 44.019531 -3.128906 43.992188 -2.222656 43.453125 -1.328125 C 42.910156 -0.441406 42.128906 0 41.109375 0 L 33.96875 0 C 32.613281 0 31.351562 -0.390625 30.1875 -1.171875 C 29.03125 -1.953125 28.179688 -2.992188 27.640625 -4.296875 L 23.75 -13.9375 C 23.75 -14 23.722656 -14.03125 23.671875 -14.03125 C 23.617188 -14.03125 23.59375 -14 23.59375 -13.9375 L 19.703125 -4.296875 C 19.160156 -2.992188 18.320312 -1.953125 17.1875 -1.171875 C 16.050781 -0.390625 14.78125 0 13.375 0 L 6.578125 0 C 5.546875 0 4.757812 -0.441406 4.21875 -1.328125 C 3.675781 -2.222656 3.648438 -3.128906 4.140625 -4.046875 L 13.375 -20.921875 C 13.59375 -21.296875 13.59375 -21.671875 13.375 -22.046875 L 4.546875 -38.09375 C 4.054688 -39.019531 4.082031 -39.925781 4.625 -40.8125 C 5.164062 -41.707031 5.945312 -42.15625 6.96875 -42.15625 L 14.109375 -42.15625 C 15.515625 -42.15625 16.785156 -41.757812 17.921875 -40.96875 C 19.054688 -40.1875 19.863281 -39.148438 20.34375 -37.859375 L 23.921875 -28.78125 C 23.921875 -28.726562 23.945312 -28.703125 24 -28.703125 C 24.050781 -28.703125 24.078125 -28.726562 24.078125 -28.78125 L 27.640625 -37.859375 C 28.128906 -39.148438 28.941406 -40.1875 30.078125 -40.96875 C 31.210938 -41.757812 32.484375 -42.15625 33.890625 -42.15625 L 40.703125 -42.15625 C 41.722656 -42.15625 42.503906 -41.707031 43.046875 -40.8125 C 43.585938 -39.925781 43.613281 -39.019531 43.125 -38.09375 L 34.296875 -22.046875 C 34.078125 -21.671875 34.078125 -21.296875 34.296875 -20.921875 Z M 34.296875 -20.921875 "/></g></g><g style="fill:#000000;fill-opacity:1;"><g transform="translate(229.06415, 218.173681)"><path style="stroke:none" d="M 46.28125 -59.171875 C 47.53125 -59.171875 48.613281 -58.710938 49.53125 -57.796875 C 50.445312 -56.878906 50.90625 -55.800781 50.90625 -54.5625 L 50.90625 -50.421875 C 50.90625 -49.179688 50.445312 -48.097656 49.53125 -47.171875 C 48.613281 -46.253906 47.53125 -45.796875 46.28125 -45.796875 L 36.390625 -45.796875 C 35.910156 -45.796875 35.671875 -45.554688 35.671875 -45.078125 L 35.671875 -4.625 C 35.671875 -3.375 35.222656 -2.289062 34.328125 -1.375 C 33.441406 -0.457031 32.375 0 31.125 0 L 23.671875 0 C 22.429688 0 21.363281 -0.457031 20.46875 -1.375 C 19.570312 -2.289062 19.125 -3.375 19.125 -4.625 L 19.125 -45.078125 C 19.125 -45.554688 18.882812 -45.796875 18.40625 -45.796875 L 8.515625 -45.796875 C 7.265625 -45.796875 6.179688 -46.253906 5.265625 -47.171875 C 4.347656 -48.097656 3.890625 -49.179688 3.890625 -50.421875 L 3.890625 -54.5625 C 3.890625 -55.800781 4.347656 -56.878906 5.265625 -57.796875 C 6.179688 -58.710938 7.265625 -59.171875 8.515625 -59.171875 Z M 46.28125 -59.171875 "/></g></g><g style="fill:#000000;fill-opacity:1;"><g transform="translate(277.368258, 218.173681)"><path style="stroke:none" d="M 28.203125 -17.015625 L 28.203125 -17.515625 C 28.203125 -17.992188 27.960938 -18.234375 27.484375 -18.234375 L 24.96875 -18.234375 C 19.5625 -18.234375 16.859375 -16.613281 16.859375 -13.375 C 16.859375 -10.945312 18.210938 -9.734375 20.921875 -9.734375 C 23.023438 -9.734375 24.765625 -10.394531 26.140625 -11.71875 C 27.515625 -13.039062 28.203125 -14.804688 28.203125 -17.015625 Z M 23.34375 -42.96875 C 30.476562 -42.96875 35.640625 -41.671875 38.828125 -39.078125 C 42.015625 -36.484375 43.609375 -32.375 43.609375 -26.75 L 43.609375 -4.625 C 43.609375 -3.375 43.148438 -2.289062 42.234375 -1.375 C 41.316406 -0.457031 40.234375 0 38.984375 0 L 33.890625 0 C 32.585938 0 31.476562 -0.441406 30.5625 -1.328125 C 29.644531 -2.222656 29.15625 -3.320312 29.09375 -4.625 L 29.09375 -5.265625 C 29.09375 -5.316406 29.066406 -5.34375 29.015625 -5.34375 C 28.960938 -5.34375 28.910156 -5.316406 28.859375 -5.265625 C 25.398438 -1.210938 21.128906 0.8125 16.046875 0.8125 C 12.265625 0.8125 9.15625 -0.390625 6.71875 -2.796875 C 4.289062 -5.203125 3.078125 -8.320312 3.078125 -12.15625 C 3.078125 -21.882812 10.375 -26.75 24.96875 -26.75 L 27.484375 -26.75 C 27.960938 -26.75 28.203125 -26.992188 28.203125 -27.484375 L 28.203125 -27.5625 C 28.203125 -30.800781 26.3125 -32.421875 22.53125 -32.421875 C 19.289062 -32.421875 15.101562 -31.9375 9.96875 -30.96875 C 8.832031 -30.75 7.804688 -31.003906 6.890625 -31.734375 C 5.972656 -32.460938 5.515625 -33.421875 5.515625 -34.609375 L 5.515625 -35.90625 C 5.515625 -37.257812 5.929688 -38.476562 6.765625 -39.5625 C 7.609375 -40.644531 8.675781 -41.289062 9.96875 -41.5 C 15.320312 -42.476562 19.78125 -42.96875 23.34375 -42.96875 Z M 23.34375 -42.96875 "/></g></g><g style="fill:#000000;fill-opacity:1;"><g transform="translate(324.862563, 218.173681)"><path style="stroke:none" d="M 34.296875 -20.921875 L 43.53125 -4.046875 C 44.019531 -3.128906 43.992188 -2.222656 43.453125 -1.328125 C 42.910156 -0.441406 42.128906 0 41.109375 0 L 33.96875 0 C 32.613281 0 31.351562 -0.390625 30.1875 -1.171875 C 29.03125 -1.953125 28.179688 -2.992188 27.640625 -4.296875 L 23.75 -13.9375 C 23.75 -14 23.722656 -14.03125 23.671875 -14.03125 C 23.617188 -14.03125 23.59375 -14 23.59375 -13.9375 L 19.703125 -4.296875 C 19.160156 -2.992188 18.320312 -1.953125 17.1875 -1.171875 C 16.050781 -0.390625 14.78125 0 13.375 0 L 6.578125 0 C 5.546875 0 4.757812 -0.441406 4.21875 -1.328125 C 3.675781 -2.222656 3.648438 -3.128906 4.140625 -4.046875 L 13.375 -20.921875 C 13.59375 -21.296875 13.59375 -21.671875 13.375 -22.046875 L 4.546875 -38.09375 C 4.054688 -39.019531 4.082031 -39.925781 4.625 -40.8125 C 5.164062 -41.707031 5.945312 -42.15625 6.96875 -42.15625 L 14.109375 -42.15625 C 15.515625 -42.15625 16.785156 -41.757812 17.921875 -40.96875 C 19.054688 -40.1875 19.863281 -39.148438 20.34375 -37.859375 L 23.921875 -28.78125 C 23.921875 -28.726562 23.945312 -28.703125 24 -28.703125 C 24.050781 -28.703125 24.078125 -28.726562 24.078125 -28.78125 L 27.640625 -37.859375 C 28.128906 -39.148438 28.941406 -40.1875 30.078125 -40.96875 C 31.210938 -41.757812 32.484375 -42.15625 33.890625 -42.15625 L 40.703125 -42.15625 C 41.722656 -42.15625 42.503906 -41.707031 43.046875 -40.8125 C 43.585938 -39.925781 43.613281 -39.019531 43.125 -38.09375 L 34.296875 -22.046875 C 34.078125 -21.671875 34.078125 -21.296875 34.296875 -20.921875 Z M 34.296875 -20.921875 "/></g></g></g></svg>