<svg xmlns="http://www.w3.org/2000/svg" xmlns:xlink="http://www.w3.org/1999/xlink" width="560" zoomAndPan="magnify" viewBox="0 0 420 135.000003" height="180" preserveAspectRatio="xMidYMid meet" version="1.0"><defs><g/><clipPath id="712602d700"><rect x="0" width="325" y="0" height="130"/></clipPath><clipPath id="96086bd025"><path d="M 18.890625 41.929688 L 69.039062 41.929688 L 69.039062 92.078125 L 18.890625 92.078125 Z M 18.890625 41.929688 " clip-rule="nonzero"/></clipPath><clipPath id="cc86ff1ee7"><path d="M 43.964844 41.929688 C 30.117188 41.929688 18.890625 53.15625 18.890625 67.003906 C 18.890625 80.851562 30.117188 92.078125 43.964844 92.078125 C 57.8125 92.078125 69.039062 80.851562 69.039062 67.003906 C 69.039062 53.15625 57.8125 41.929688 43.964844 41.929688 Z M 43.964844 41.929688 " clip-rule="nonzero"/></clipPath><clipPath id="d612821c04"><path d="M 0.890625 0.929688 L 51.039062 0.929688 L 51.039062 51.078125 L 0.890625 51.078125 Z M 0.890625 0.929688 " clip-rule="nonzero"/></clipPath><clipPath id="1504b995e3"><path d="M 25.964844 0.929688 C 12.117188 0.929688 0.890625 12.15625 0.890625 26.003906 C 0.890625 39.851562 12.117188 51.078125 25.964844 51.078125 C 39.8125 51.078125 51.039062 39.851562 51.039062 26.003906 C 51.039062 12.15625 39.8125 0.929688 25.964844 0.929688 Z M 25.964844 0.929688 " clip-rule="nonzero"/></clipPath><clipPath id="567f9a93b9"><rect x="0" width="52" y="0" height="52"/></clipPath><clipPath id="4dc6f9d032"><rect x="0" width="33" y="0" height="70"/></clipPath></defs><path fill="#1a20f0" d="M 85.515625 68.5625 C 84.644531 91.511719 65.339844 109.417969 42.390625 108.542969 C 19.449219 107.675781 1.539062 88.367188 2.410156 65.417969 C 3.289062 42.476562 22.585938 24.566406 45.535156 25.4375 C 68.476562 26.316406 86.382812 45.613281 85.515625 68.5625 Z M 68.945312 67.9375 C 68.976562 67.117188 68.96875 66.300781 68.917969 65.484375 C 68.871094 64.664062 68.78125 63.851562 68.652344 63.042969 C 68.523438 62.234375 68.351562 61.433594 68.144531 60.644531 C 67.9375 59.851562 67.691406 59.070312 67.40625 58.304688 C 67.121094 57.535156 66.800781 56.78125 66.441406 56.046875 C 66.082031 55.3125 65.691406 54.59375 65.261719 53.894531 C 64.832031 53.199219 64.371094 52.523438 63.875 51.871094 C 63.378906 51.21875 62.855469 50.59375 62.296875 49.992188 C 61.742188 49.390625 61.15625 48.820312 60.542969 48.277344 C 59.929688 47.734375 59.292969 47.222656 58.628906 46.742188 C 57.964844 46.261719 57.28125 45.816406 56.574219 45.402344 C 55.867188 44.988281 55.140625 44.613281 54.398438 44.269531 C 53.652344 43.929688 52.894531 43.625 52.121094 43.355469 C 51.347656 43.089844 50.5625 42.859375 49.765625 42.671875 C 48.96875 42.480469 48.164062 42.328125 47.351562 42.21875 C 46.542969 42.109375 45.726562 42.035156 44.910156 42.003906 C 44.089844 41.976562 43.273438 41.984375 42.453125 42.035156 C 41.636719 42.082031 40.824219 42.171875 40.015625 42.300781 C 39.207031 42.429688 38.40625 42.597656 37.613281 42.808594 C 36.824219 43.015625 36.042969 43.261719 35.273438 43.546875 C 34.507812 43.832031 33.753906 44.152344 33.019531 44.511719 C 32.28125 44.867188 31.566406 45.261719 30.867188 45.691406 C 30.171875 46.121094 29.496094 46.582031 28.84375 47.078125 C 28.191406 47.570312 27.566406 48.097656 26.964844 48.65625 C 26.363281 49.210938 25.792969 49.796875 25.25 50.410156 C 24.707031 51.023438 24.195312 51.660156 23.714844 52.324219 C 23.234375 52.984375 22.789062 53.671875 22.375 54.378906 C 21.960938 55.085938 21.582031 55.8125 21.242188 56.554688 C 20.898438 57.300781 20.597656 58.058594 20.328125 58.832031 C 20.0625 59.605469 19.832031 60.390625 19.644531 61.1875 C 19.453125 61.984375 19.300781 62.789062 19.191406 63.597656 C 19.082031 64.410156 19.007812 65.226562 18.976562 66.042969 C 18.945312 66.863281 18.957031 67.679688 19.003906 68.496094 C 19.054688 69.316406 19.144531 70.128906 19.273438 70.9375 C 19.402344 71.746094 19.570312 72.546875 19.78125 73.335938 C 19.988281 74.128906 20.234375 74.910156 20.519531 75.675781 C 20.800781 76.445312 21.125 77.195312 21.480469 77.933594 C 21.839844 78.667969 22.234375 79.386719 22.664062 80.082031 C 23.09375 80.78125 23.554688 81.457031 24.050781 82.109375 C 24.542969 82.761719 25.070312 83.386719 25.625 83.988281 C 26.183594 84.589844 26.769531 85.160156 27.382812 85.703125 C 27.992188 86.246094 28.632812 86.757812 29.296875 87.238281 C 29.957031 87.71875 30.644531 88.164062 31.351562 88.578125 C 32.058594 88.992188 32.78125 89.367188 33.527344 89.710938 C 34.269531 90.050781 35.03125 90.355469 35.804688 90.625 C 36.578125 90.890625 37.363281 91.121094 38.160156 91.308594 C 38.957031 91.5 39.761719 91.648438 40.570312 91.761719 C 41.382812 91.871094 42.199219 91.941406 43.015625 91.972656 C 43.835938 92.003906 44.652344 91.996094 45.46875 91.945312 C 46.285156 91.898438 47.101562 91.808594 47.910156 91.679688 C 48.71875 91.550781 49.515625 91.382812 50.308594 91.171875 C 51.101562 90.964844 51.882812 90.71875 52.648438 90.433594 C 53.417969 90.148438 54.167969 89.828125 54.90625 89.46875 C 55.640625 89.113281 56.359375 88.71875 57.054688 88.289062 C 57.753906 87.859375 58.429688 87.398438 59.082031 86.902344 C 59.734375 86.40625 60.359375 85.882812 60.960938 85.324219 C 61.558594 84.769531 62.132812 84.183594 62.675781 83.570312 C 63.21875 82.957031 63.730469 82.320312 64.210938 81.65625 C 64.691406 80.992188 65.136719 80.308594 65.550781 79.601562 C 65.964844 78.894531 66.339844 78.167969 66.683594 77.425781 C 67.023438 76.679688 67.328125 75.921875 67.597656 75.148438 C 67.863281 74.375 68.09375 73.589844 68.28125 72.792969 C 68.472656 71.996094 68.621094 71.191406 68.734375 70.378906 C 68.84375 69.570312 68.914062 68.753906 68.945312 67.9375 Z M 68.945312 67.9375 " fill-opacity="1" fill-rule="nonzero"/></svg>
