<svg xmlns="http://www.w3.org/2000/svg" xmlns:xlink="http://www.w3.org/1999/xlink" width="560" zoomAndPan="magnify" viewBox="0 0 420 135.000003" height="180" preserveAspectRatio="xMidYMid meet" version="1.2"><defs/><g id="7d958f9bef"><path style=" stroke:none;fill-rule:nonzero;fill:#1a20f0;fill-opacity:1;" d="M 85.445312 68.527344 C 84.578125 91.457031 65.285156 109.347656 42.355469 108.472656 C 19.433594 107.605469 1.539062 88.3125 2.410156 65.382812 C 3.285156 42.460938 22.570312 24.566406 45.5 25.4375 C 68.421875 26.3125 86.316406 45.597656 85.445312 68.527344 Z M 68.890625 67.898438 C 68.921875 67.082031 68.914062 66.265625 68.863281 65.449219 C 68.8125 64.632812 68.726562 63.820312 68.597656 63.011719 C 68.464844 62.203125 68.296875 61.40625 68.089844 60.613281 C 67.882812 59.820312 67.636719 59.042969 67.351562 58.273438 C 67.066406 57.507812 66.746094 56.757812 66.390625 56.019531 C 66.03125 55.285156 65.636719 54.570312 65.210938 53.871094 C 64.78125 53.175781 64.320312 52.5 63.824219 51.847656 C 63.328125 51.199219 62.804688 50.570312 62.246094 49.972656 C 61.691406 49.371094 61.105469 48.800781 60.496094 48.257812 C 59.882812 47.714844 59.246094 47.203125 58.582031 46.722656 C 57.917969 46.242188 57.234375 45.796875 56.527344 45.382812 C 55.824219 44.972656 55.097656 44.59375 54.355469 44.253906 C 53.609375 43.910156 52.851562 43.609375 52.078125 43.339844 C 51.304688 43.074219 50.519531 42.84375 49.726562 42.65625 C 48.929688 42.464844 48.125 42.316406 47.316406 42.203125 C 46.503906 42.09375 45.691406 42.023438 44.871094 41.992188 C 44.054688 41.960938 43.238281 41.96875 42.421875 42.019531 C 41.605469 42.066406 40.792969 42.15625 39.984375 42.285156 C 39.175781 42.414062 38.375 42.585938 37.585938 42.792969 C 36.792969 43 36.015625 43.246094 35.246094 43.53125 C 34.480469 43.8125 33.730469 44.136719 32.992188 44.492188 C 32.257812 44.851562 31.542969 45.246094 30.84375 45.671875 C 30.148438 46.101562 29.472656 46.5625 28.820312 47.058594 C 28.167969 47.554688 27.542969 48.078125 26.945312 48.632812 C 26.34375 49.191406 25.773438 49.773438 25.230469 50.386719 C 24.6875 51 24.175781 51.636719 23.695312 52.300781 C 23.214844 52.960938 22.769531 53.648438 22.355469 54.355469 C 21.945312 55.058594 21.566406 55.785156 21.226562 56.527344 C 20.882812 57.273438 20.582031 58.03125 20.3125 58.804688 C 20.046875 59.578125 19.816406 60.363281 19.628906 61.15625 C 19.4375 61.953125 19.289062 62.757812 19.175781 63.566406 C 19.066406 64.378906 18.996094 65.191406 18.964844 66.011719 C 18.933594 66.828125 18.941406 67.644531 18.992188 68.460938 C 19.039062 69.277344 19.128906 70.089844 19.257812 70.898438 C 19.386719 71.707031 19.554688 72.503906 19.765625 73.296875 C 19.972656 74.089844 20.21875 74.867188 20.503906 75.636719 C 20.785156 76.402344 21.109375 77.152344 21.464844 77.890625 C 21.824219 78.625 22.21875 79.339844 22.644531 80.039062 C 23.074219 80.734375 23.535156 81.410156 24.03125 82.0625 C 24.527344 82.710938 25.050781 83.339844 25.605469 83.9375 C 26.164062 84.539062 26.746094 85.109375 27.359375 85.652344 C 27.972656 86.195312 28.609375 86.707031 29.273438 87.1875 C 29.933594 87.667969 30.621094 88.113281 31.324219 88.527344 C 32.03125 88.9375 32.757812 89.316406 33.5 89.65625 C 34.246094 90 35.003906 90.300781 35.777344 90.570312 C 36.550781 90.835938 37.335938 91.066406 38.128906 91.253906 C 38.925781 91.445312 39.730469 91.59375 40.539062 91.707031 C 41.351562 91.816406 42.164062 91.886719 42.980469 91.917969 C 43.800781 91.949219 44.617188 91.941406 45.433594 91.890625 C 46.25 91.84375 47.0625 91.753906 47.871094 91.625 C 48.679688 91.496094 49.476562 91.324219 50.269531 91.117188 C 51.0625 90.910156 51.839844 90.664062 52.605469 90.378906 C 53.375 90.097656 54.125 89.773438 54.863281 89.417969 C 55.597656 89.058594 56.3125 88.664062 57.011719 88.238281 C 57.707031 87.808594 58.382812 87.347656 59.035156 86.851562 C 59.683594 86.355469 60.3125 85.832031 60.910156 85.277344 C 61.511719 84.71875 62.082031 84.136719 62.625 83.523438 C 63.167969 82.910156 63.679688 82.273438 64.160156 81.609375 C 64.640625 80.949219 65.085938 80.261719 65.496094 79.554688 C 65.910156 78.851562 66.289062 78.125 66.628906 77.382812 C 66.96875 76.636719 67.273438 75.878906 67.542969 75.105469 C 67.808594 74.332031 68.039062 73.546875 68.226562 72.753906 C 68.417969 71.957031 68.566406 71.152344 68.679688 70.34375 C 68.789062 69.53125 68.859375 68.71875 68.890625 67.898438 Z M 68.890625 67.898438 "/><path style=" stroke:none;fill-rule:nonzero;fill:#f84936;fill-opacity:1;" d="M 55.667969 44.898438 L 55.632812 44.878906 L 55.621094 44.878906 C 55.464844 44.796875 55.308594 44.714844 55.148438 44.636719 C 55.066406 44.589844 54.984375 44.550781 54.90625 44.511719 C 54.53125 44.328125 54.15625 44.15625 53.773438 43.992188 C 53.652344 43.941406 53.53125 43.890625 53.410156 43.84375 L 53.15625 43.742188 C 53.113281 43.722656 53.066406 43.703125 53.015625 43.6875 L 52.960938 43.664062 C 52.828125 43.609375 52.695312 43.5625 52.5625 43.511719 C 52.492188 43.484375 52.421875 43.460938 52.351562 43.4375 C 52.335938 43.429688 52.324219 43.425781 52.3125 43.421875 C 52.179688 43.375 52.046875 43.328125 51.914062 43.285156 L 51.894531 43.285156 L 51.761719 43.238281 L 51.667969 43.207031 L 51.21875 43.070312 C 51.1875 43.058594 51.152344 43.046875 51.121094 43.039062 L 51.105469 43.039062 C 50.933594 42.988281 50.769531 42.941406 50.597656 42.894531 L 50.316406 42.816406 C 50.195312 42.78125 50.066406 42.75 49.933594 42.71875 L 49.816406 42.691406 C 49.75 42.671875 49.683594 42.65625 49.617188 42.644531 L 49.542969 42.625 L 49.414062 42.597656 L 49.132812 42.535156 L 48.785156 42.464844 L 48.496094 42.40625 C 48.34375 42.378906 48.191406 42.351562 48.039062 42.332031 C 48.003906 42.332031 47.96875 42.316406 47.933594 42.3125 L 47.878906 42.3125 C 47.761719 42.289062 47.640625 42.273438 47.515625 42.257812 L 47.503906 42.257812 L 47.378906 42.238281 C 47.324219 42.238281 47.269531 42.222656 47.210938 42.214844 C 47.1875 42.210938 47.164062 42.207031 47.140625 42.207031 L 47.015625 42.191406 L 46.730469 42.15625 L 46.3125 42.113281 C 46.199219 42.101562 46.09375 42.089844 45.980469 42.082031 L 45.953125 42.082031 C 45.800781 42.070312 45.648438 42.0625 45.496094 42.050781 C 45.285156 42.039062 45.074219 42.027344 44.867188 42.019531 C 44.542969 42.007812 44.226562 42 43.902344 42 L 43.414062 42 C 43.351562 42 43.292969 42 43.234375 42 C 43.03125 42 42.824219 42.011719 42.621094 42.023438 C 42.417969 42.03125 42.238281 42.046875 42.046875 42.058594 C 41.898438 42.058594 41.746094 42.082031 41.597656 42.097656 C 41.582031 42.097656 41.570312 42.097656 41.554688 42.097656 C 41.492188 42.097656 41.425781 42.109375 41.363281 42.113281 C 41.253906 42.113281 41.148438 42.136719 41.039062 42.148438 C 40.964844 42.148438 40.894531 42.164062 40.824219 42.175781 L 40.660156 42.195312 C 40.585938 42.195312 40.515625 42.214844 40.441406 42.226562 C 40.324219 42.238281 40.214844 42.257812 40.097656 42.277344 C 39.980469 42.296875 39.816406 42.320312 39.675781 42.34375 L 39.550781 42.367188 C 39.40625 42.390625 39.265625 42.417969 39.121094 42.445312 C 39.027344 42.464844 38.9375 42.480469 38.84375 42.503906 L 38.539062 42.566406 C 38.539062 42.566406 38.527344 42.566406 38.523438 42.566406 L 38.269531 42.625 L 38.238281 42.625 C 38.105469 42.652344 37.976562 42.683594 37.847656 42.71875 C 37.667969 42.761719 37.476562 42.8125 37.296875 42.863281 L 37.164062 42.898438 C 37.003906 42.945312 36.847656 42.988281 36.695312 43.035156 C 36.511719 43.089844 36.320312 43.152344 36.136719 43.21875 C 36.007812 43.261719 35.878906 43.304688 35.753906 43.347656 L 35.417969 43.46875 L 35 43.621094 L 34.613281 43.773438 C 34.464844 43.835938 34.316406 43.894531 34.167969 43.957031 C 34.050781 44.007812 33.933594 44.054688 33.808594 44.109375 C 33.78125 44.121094 33.761719 44.132812 33.734375 44.140625 L 27.875 28.625 C 28.03125 28.558594 28.1875 28.492188 28.339844 28.429688 C 28.496094 28.371094 28.652344 28.304688 28.804688 28.25 C 28.902344 28.210938 28.988281 28.171875 29.089844 28.140625 C 29.242188 28.082031 29.390625 28.023438 29.542969 27.96875 C 29.695312 27.914062 29.84375 27.859375 29.996094 27.808594 C 30.070312 27.777344 30.148438 27.75 30.226562 27.726562 C 30.371094 27.671875 30.519531 27.621094 30.664062 27.574219 C 30.695312 27.5625 30.722656 27.550781 30.753906 27.542969 C 30.898438 27.496094 31.042969 27.449219 31.1875 27.402344 C 31.332031 27.355469 31.507812 27.296875 31.667969 27.25 C 31.828125 27.199219 31.945312 27.164062 32.085938 27.121094 C 32.089844 27.121094 32.097656 27.121094 32.101562 27.121094 C 32.601562 26.976562 33.105469 26.835938 33.613281 26.707031 L 34.117188 26.582031 C 34.285156 26.539062 34.449219 26.5 34.617188 26.460938 L 35.191406 26.335938 C 35.382812 26.292969 35.574219 26.253906 35.773438 26.214844 C 36.101562 26.148438 36.429688 26.089844 36.765625 26.035156 L 37.261719 25.949219 L 37.804688 25.867188 C 38.09375 25.824219 38.382812 25.785156 38.671875 25.746094 L 38.855469 25.722656 L 38.910156 25.722656 C 39.171875 25.691406 39.433594 25.664062 39.699219 25.636719 C 39.871094 25.617188 40.042969 25.605469 40.21875 25.589844 L 40.738281 25.546875 L 40.796875 25.546875 C 41.035156 25.527344 41.269531 25.511719 41.507812 25.496094 L 41.535156 25.496094 C 41.75 25.484375 41.960938 25.476562 42.175781 25.46875 C 42.28125 25.46875 42.390625 25.457031 42.496094 25.457031 L 43.070312 25.4375 L 43.132812 25.4375 C 43.386719 25.4375 43.640625 25.4375 43.898438 25.4375 C 44.425781 25.4375 44.960938 25.449219 45.496094 25.46875 C 45.722656 25.46875 45.949219 25.488281 46.171875 25.5 C 46.398438 25.511719 46.589844 25.523438 46.800781 25.535156 L 46.878906 25.535156 C 47.039062 25.550781 47.203125 25.5625 47.363281 25.574219 C 47.566406 25.589844 47.773438 25.609375 47.980469 25.628906 C 48.363281 25.667969 48.746094 25.710938 49.125 25.757812 L 49.222656 25.769531 L 49.820312 25.847656 L 50.417969 25.941406 C 50.570312 25.960938 50.726562 25.988281 50.878906 26.015625 L 51.15625 26.0625 C 51.488281 26.121094 51.824219 26.179688 52.15625 26.242188 L 52.214844 26.253906 L 52.519531 26.316406 L 52.808594 26.378906 C 52.988281 26.417969 53.179688 26.457031 53.363281 26.503906 C 53.371094 26.503906 53.382812 26.503906 53.390625 26.503906 C 53.589844 26.550781 53.785156 26.597656 53.984375 26.648438 C 54.183594 26.699219 54.394531 26.75 54.601562 26.808594 C 55.011719 26.914062 55.417969 27.027344 55.820312 27.148438 L 55.863281 27.160156 L 56.296875 27.292969 C 56.703125 27.417969 57.109375 27.550781 57.511719 27.695312 C 57.691406 27.753906 57.875 27.816406 58.042969 27.875 C 58.207031 27.9375 58.425781 28.015625 58.617188 28.089844 C 58.765625 28.140625 58.914062 28.199219 59.066406 28.257812 C 59.476562 28.417969 59.882812 28.585938 60.285156 28.757812 C 60.566406 28.878906 60.847656 29.003906 61.125 29.121094 C 61.351562 29.226562 61.582031 29.332031 61.808594 29.441406 C 61.953125 29.511719 62.101562 29.578125 62.242188 29.648438 L 62.292969 29.675781 L 62.863281 29.960938 C 62.96875 30.011719 63.066406 30.066406 63.167969 30.121094 C 63.265625 30.175781 63.324219 30.199219 63.398438 30.242188 C 63.542969 30.316406 63.6875 30.394531 63.832031 30.476562 L 63.902344 30.511719 C 63.9375 30.53125 63.972656 30.550781 64.003906 30.570312 L 64.394531 30.789062 C 64.574219 30.890625 64.757812 30.992188 64.929688 31.097656 C 65.101562 31.203125 65.265625 31.296875 65.4375 31.398438 C 65.605469 31.5 65.769531 31.605469 65.9375 31.707031 C 66.101562 31.8125 66.222656 31.890625 66.363281 31.980469 C 66.398438 32 66.429688 32.023438 66.464844 32.046875 C 66.617188 32.144531 66.773438 32.246094 66.925781 32.347656 C 67.078125 32.449219 67.25 32.5625 67.414062 32.675781 C 67.574219 32.789062 67.734375 32.898438 67.894531 33.011719 L 57.246094 45.8125 L 57.046875 45.695312 C 57.03125 45.683594 57.011719 45.671875 56.992188 45.660156 L 56.691406 45.480469 C 56.472656 45.351562 56.257812 45.222656 56.03125 45.101562 L 55.671875 44.902344 Z M 55.667969 44.898438 "/><path style=" stroke:none;fill-rule:nonzero;fill:#ffc023;fill-opacity:1;" d="M 67.898438 33.011719 L 57.25 45.816406 C 58.386719 46.535156 59.460938 47.339844 60.46875 48.230469 C 61.476562 49.121094 62.40625 50.085938 63.257812 51.125 C 64.109375 52.167969 64.871094 53.269531 65.546875 54.433594 C 66.21875 55.597656 66.796875 56.808594 67.273438 58.0625 C 67.753906 59.320312 68.128906 60.609375 68.398438 61.925781 C 68.667969 63.242188 68.832031 64.574219 68.886719 65.917969 C 68.945312 67.261719 68.890625 68.601562 68.730469 69.9375 C 68.570312 71.273438 68.304688 72.585938 67.929688 73.878906 C 67.558594 75.171875 67.085938 76.425781 66.507812 77.640625 C 65.933594 78.855469 65.265625 80.019531 64.5 81.125 C 63.738281 82.234375 62.890625 83.273438 61.960938 84.242188 C 61.03125 85.214844 60.027344 86.105469 58.953125 86.914062 C 57.878906 87.722656 56.746094 88.4375 55.554688 89.066406 C 54.363281 89.691406 53.132812 90.21875 51.855469 90.644531 C 50.582031 91.070312 49.28125 91.394531 47.953125 91.609375 C 46.625 91.828125 45.289062 91.9375 43.945312 91.9375 C 43.625 91.9375 43.304688 91.9375 42.980469 91.917969 C 41.339844 91.859375 39.71875 91.636719 38.117188 91.257812 C 36.519531 90.875 34.972656 90.339844 33.476562 89.652344 C 31.984375 88.964844 30.574219 88.136719 29.242188 87.171875 C 27.914062 86.203125 26.691406 85.113281 25.578125 83.90625 L 14.925781 96.710938 C 16.75 98.492188 18.722656 100.09375 20.84375 101.515625 C 22.964844 102.933594 25.199219 104.144531 27.542969 105.152344 C 29.890625 106.15625 32.308594 106.9375 34.796875 107.496094 C 37.285156 108.054688 39.804688 108.382812 42.355469 108.476562 C 42.890625 108.496094 43.421875 108.503906 43.953125 108.503906 C 66.175781 108.503906 84.597656 90.921875 85.445312 68.527344 C 85.511719 66.804688 85.472656 65.085938 85.324219 63.371094 C 85.175781 61.652344 84.921875 59.953125 84.5625 58.269531 C 84.203125 56.582031 83.738281 54.925781 83.175781 53.300781 C 82.609375 51.671875 81.945312 50.085938 81.179688 48.542969 C 80.417969 46.996094 79.5625 45.507812 78.613281 44.066406 C 77.664062 42.628906 76.628906 41.257812 75.507812 39.945312 C 74.390625 38.636719 73.191406 37.402344 71.917969 36.242188 C 70.644531 35.082031 69.304688 34.003906 67.898438 33.011719 Z M 67.898438 33.011719 "/><g style="fill:#000000;fill-opacity:1;"><g transform="translate(93.322385, 101.660123)"><path style="stroke:none" d="M 28.65625 -12.828125 C 32.320312 -12.828125 34.992188 -13.492188 36.671875 -14.828125 C 38.359375 -16.171875 39.203125 -18.25 39.203125 -21.0625 C 39.203125 -25.644531 35.84375 -27.9375 29.125 -27.9375 L 25.359375 -27.9375 C 24.816406 -27.9375 24.546875 -27.660156 24.546875 -27.109375 L 24.546875 -14.109375 C 24.546875 -13.554688 24.789062 -13.21875 25.28125 -13.09375 C 26.375 -12.914062 27.5 -12.828125 28.65625 -12.828125 Z M 24.546875 -52.75 L 24.546875 -41.578125 C 24.546875 -41.023438 24.816406 -40.75 25.359375 -40.75 L 27.296875 -40.75 C 34.316406 -40.75 37.828125 -43.039062 37.828125 -47.625 C 37.828125 -51.894531 34.769531 -54.03125 28.65625 -54.03125 C 27.5 -54.03125 26.375 -53.9375 25.28125 -53.75 C 24.789062 -53.632812 24.546875 -53.300781 24.546875 -52.75 Z M 40.65625 -35.171875 C 45.363281 -34.554688 49.117188 -32.753906 51.921875 -29.765625 C 54.734375 -26.773438 56.140625 -23.265625 56.140625 -19.234375 C 56.140625 -12.335938 53.894531 -7.253906 49.40625 -3.984375 C 44.914062 -0.710938 37.695312 0.921875 27.75 0.921875 C 22.675781 0.921875 17.394531 0.675781 11.90625 0.1875 C 10.4375 0.0625 9.195312 -0.5625 8.1875 -1.6875 C 7.1875 -2.820312 6.6875 -4.148438 6.6875 -5.671875 L 6.6875 -61.171875 C 6.6875 -62.640625 7.171875 -63.953125 8.140625 -65.109375 C 9.117188 -66.273438 10.34375 -66.914062 11.8125 -67.03125 C 17 -67.519531 22.003906 -67.765625 26.828125 -67.765625 C 45.148438 -67.765625 54.3125 -61.96875 54.3125 -50.375 C 54.3125 -46.457031 53.070312 -43.140625 50.59375 -40.421875 C 48.125 -37.710938 44.8125 -36.019531 40.65625 -35.34375 C 40.59375 -35.34375 40.5625 -35.3125 40.5625 -35.25 C 40.5625 -35.195312 40.59375 -35.171875 40.65625 -35.171875 Z M 40.65625 -35.171875 "/></g></g><g style="fill:#000000;fill-opacity:1;"><g transform="translate(152.020004, 101.660123)"><path style="stroke:none" d="M 46.34375 -47.625 C 47.738281 -47.625 48.957031 -47.101562 50 -46.0625 C 51.039062 -45.019531 51.5625 -43.800781 51.5625 -42.40625 L 51.5625 -5.21875 C 51.5625 -3.8125 51.039062 -2.585938 50 -1.546875 C 48.957031 -0.515625 47.738281 0 46.34375 0 L 40.109375 0 C 38.640625 0 37.382812 -0.5 36.34375 -1.5 C 35.3125 -2.507812 34.765625 -3.75 34.703125 -5.21875 L 34.703125 -5.953125 C 34.703125 -6.015625 34.671875 -6.046875 34.609375 -6.046875 C 34.492188 -6.046875 34.4375 -6.015625 34.4375 -5.953125 C 30.644531 -1.367188 25.972656 0.921875 20.421875 0.921875 C 15.046875 0.921875 11.179688 -0.570312 8.828125 -3.5625 C 6.484375 -6.5625 5.3125 -11.785156 5.3125 -19.234375 L 5.3125 -42.40625 C 5.3125 -43.800781 5.828125 -45.019531 6.859375 -46.0625 C 7.898438 -47.101562 9.125 -47.625 10.53125 -47.625 L 17.03125 -47.625 C 18.4375 -47.625 19.65625 -47.101562 20.6875 -46.0625 C 21.726562 -45.019531 22.25 -43.800781 22.25 -42.40625 L 22.25 -20.140625 C 22.25 -17.335938 22.628906 -15.414062 23.390625 -14.375 C 24.160156 -13.34375 25.460938 -12.828125 27.296875 -12.828125 C 29.003906 -12.828125 30.570312 -13.492188 32 -14.828125 C 33.4375 -16.171875 34.15625 -17.640625 34.15625 -19.234375 L 34.15625 -42.40625 C 34.15625 -43.800781 34.671875 -45.019531 35.703125 -46.0625 C 36.742188 -47.101562 37.96875 -47.625 39.375 -47.625 Z M 46.34375 -47.625 "/></g></g><g style="fill:#000000;fill-opacity:1;"><g transform="translate(209.344046, 101.660123)"><path style="stroke:none" d="M 38.734375 -23.625 L 49.1875 -4.578125 C 49.726562 -3.535156 49.691406 -2.507812 49.078125 -1.5 C 48.472656 -0.5 47.59375 0 46.4375 0 L 38.375 0 C 36.84375 0 35.421875 -0.441406 34.109375 -1.328125 C 32.796875 -2.210938 31.835938 -3.390625 31.234375 -4.859375 L 26.84375 -15.75 C 26.84375 -15.8125 26.8125 -15.84375 26.75 -15.84375 C 26.6875 -15.84375 26.65625 -15.8125 26.65625 -15.75 L 22.25 -4.859375 C 21.644531 -3.390625 20.703125 -2.210938 19.421875 -1.328125 C 18.140625 -0.441406 16.703125 0 15.109375 0 L 7.421875 0 C 6.265625 0 5.378906 -0.5 4.765625 -1.5 C 4.148438 -2.507812 4.117188 -3.535156 4.671875 -4.578125 L 15.109375 -23.625 C 15.359375 -24.050781 15.359375 -24.476562 15.109375 -24.90625 L 5.125 -43.046875 C 4.582031 -44.078125 4.613281 -45.097656 5.21875 -46.109375 C 5.832031 -47.117188 6.71875 -47.625 7.875 -47.625 L 15.9375 -47.625 C 17.519531 -47.625 18.953125 -47.179688 20.234375 -46.296875 C 21.523438 -45.410156 22.441406 -44.234375 22.984375 -42.765625 L 27.015625 -32.515625 C 27.015625 -32.453125 27.046875 -32.421875 27.109375 -32.421875 C 27.171875 -32.421875 27.203125 -32.453125 27.203125 -32.515625 L 31.234375 -42.765625 C 31.785156 -44.234375 32.703125 -45.410156 33.984375 -46.296875 C 35.265625 -47.179688 36.695312 -47.625 38.28125 -47.625 L 45.96875 -47.625 C 47.132812 -47.625 48.019531 -47.117188 48.625 -46.109375 C 49.238281 -45.097656 49.269531 -44.078125 48.71875 -43.046875 L 38.734375 -24.90625 C 38.492188 -24.476562 38.492188 -24.050781 38.734375 -23.625 Z M 38.734375 -23.625 "/></g></g><g style="fill:#000000;fill-opacity:1;"><g transform="translate(256.96093, 101.660123)"><path style="stroke:none" d="M 52.296875 -66.859375 C 53.691406 -66.859375 54.910156 -66.335938 55.953125 -65.296875 C 56.992188 -64.253906 57.515625 -63.03125 57.515625 -61.625 L 57.515625 -56.96875 C 57.515625 -55.5625 56.992188 -54.335938 55.953125 -53.296875 C 54.910156 -52.253906 53.691406 -51.734375 52.296875 -51.734375 L 41.125 -51.734375 C 40.570312 -51.734375 40.296875 -51.460938 40.296875 -50.921875 L 40.296875 -5.21875 C 40.296875 -3.8125 39.789062 -2.585938 38.78125 -1.546875 C 37.769531 -0.515625 36.566406 0 35.171875 0 L 26.734375 0 C 25.335938 0 24.132812 -0.515625 23.125 -1.546875 C 22.113281 -2.585938 21.609375 -3.8125 21.609375 -5.21875 L 21.609375 -50.921875 C 21.609375 -51.460938 21.332031 -51.734375 20.78125 -51.734375 L 9.609375 -51.734375 C 8.210938 -51.734375 6.992188 -52.253906 5.953125 -53.296875 C 4.910156 -54.335938 4.390625 -55.5625 4.390625 -56.96875 L 4.390625 -61.625 C 4.390625 -63.03125 4.910156 -64.253906 5.953125 -65.296875 C 6.992188 -66.335938 8.210938 -66.859375 9.609375 -66.859375 Z M 52.296875 -66.859375 "/></g></g><g style="fill:#000000;fill-opacity:1;"><g transform="translate(311.53695, 101.660123)"><path style="stroke:none" d="M 31.875 -19.234375 L 31.875 -19.78125 C 31.875 -20.332031 31.597656 -20.609375 31.046875 -20.609375 L 28.203125 -20.609375 C 22.097656 -20.609375 19.046875 -18.773438 19.046875 -15.109375 C 19.046875 -12.359375 20.570312 -10.984375 23.625 -10.984375 C 26.007812 -10.984375 27.976562 -11.734375 29.53125 -13.234375 C 31.09375 -14.734375 31.875 -16.734375 31.875 -19.234375 Z M 26.375 -48.53125 C 34.4375 -48.53125 40.265625 -47.066406 43.859375 -44.140625 C 47.460938 -41.210938 49.265625 -36.570312 49.265625 -30.21875 L 49.265625 -5.21875 C 49.265625 -3.8125 48.742188 -2.585938 47.703125 -1.546875 C 46.671875 -0.515625 45.453125 0 44.046875 0 L 38.28125 0 C 36.8125 0 35.554688 -0.5 34.515625 -1.5 C 33.484375 -2.507812 32.9375 -3.75 32.875 -5.21875 L 32.875 -5.953125 C 32.875 -6.015625 32.84375 -6.046875 32.78125 -6.046875 C 32.71875 -6.046875 32.660156 -6.015625 32.609375 -5.953125 C 28.691406 -1.367188 23.863281 0.921875 18.125 0.921875 C 13.851562 0.921875 10.34375 -0.4375 7.59375 -3.15625 C 4.851562 -5.875 3.484375 -9.398438 3.484375 -13.734375 C 3.484375 -24.722656 11.722656 -30.21875 28.203125 -30.21875 L 31.046875 -30.21875 C 31.597656 -30.21875 31.875 -30.492188 31.875 -31.046875 L 31.875 -31.140625 C 31.875 -34.796875 29.734375 -36.625 25.453125 -36.625 C 21.796875 -36.625 17.066406 -36.078125 11.265625 -34.984375 C 9.984375 -34.734375 8.820312 -35.019531 7.78125 -35.84375 C 6.75 -36.675781 6.234375 -37.765625 6.234375 -39.109375 L 6.234375 -40.5625 C 6.234375 -42.09375 6.703125 -43.46875 7.640625 -44.6875 C 8.585938 -45.90625 9.796875 -46.640625 11.265625 -46.890625 C 17.304688 -47.984375 22.34375 -48.53125 26.375 -48.53125 Z M 26.375 -48.53125 "/></g></g><g style="fill:#000000;fill-opacity:1;"><g transform="translate(365.198019, 101.660123)"><path style="stroke:none" d="M 38.734375 -23.625 L 49.1875 -4.578125 C 49.726562 -3.535156 49.691406 -2.507812 49.078125 -1.5 C 48.472656 -0.5 47.59375 0 46.4375 0 L 38.375 0 C 36.84375 0 35.421875 -0.441406 34.109375 -1.328125 C 32.796875 -2.210938 31.835938 -3.390625 31.234375 -4.859375 L 26.84375 -15.75 C 26.84375 -15.8125 26.8125 -15.84375 26.75 -15.84375 C 26.6875 -15.84375 26.65625 -15.8125 26.65625 -15.75 L 22.25 -4.859375 C 21.644531 -3.390625 20.703125 -2.210938 19.421875 -1.328125 C 18.140625 -0.441406 16.703125 0 15.109375 0 L 7.421875 0 C 6.265625 0 5.378906 -0.5 4.765625 -1.5 C 4.148438 -2.507812 4.117188 -3.535156 4.671875 -4.578125 L 15.109375 -23.625 C 15.359375 -24.050781 15.359375 -24.476562 15.109375 -24.90625 L 5.125 -43.046875 C 4.582031 -44.078125 4.613281 -45.097656 5.21875 -46.109375 C 5.832031 -47.117188 6.71875 -47.625 7.875 -47.625 L 15.9375 -47.625 C 17.519531 -47.625 18.953125 -47.179688 20.234375 -46.296875 C 21.523438 -45.410156 22.441406 -44.234375 22.984375 -42.765625 L 27.015625 -32.515625 C 27.015625 -32.453125 27.046875 -32.421875 27.109375 -32.421875 C 27.171875 -32.421875 27.203125 -32.453125 27.203125 -32.515625 L 31.234375 -42.765625 C 31.785156 -44.234375 32.703125 -45.410156 33.984375 -46.296875 C 35.265625 -47.179688 36.695312 -47.625 38.28125 -47.625 L 45.96875 -47.625 C 47.132812 -47.625 48.019531 -47.117188 48.625 -46.109375 C 49.238281 -45.097656 49.269531 -44.078125 48.71875 -43.046875 L 38.734375 -24.90625 C 38.492188 -24.476562 38.492188 -24.050781 38.734375 -23.625 Z M 38.734375 -23.625 "/></g></g></g></svg>