<svg xmlns="http://www.w3.org/2000/svg" xmlns:xlink="http://www.w3.org/1999/xlink" width="560" zoomAndPan="magnify" viewBox="0 0 420 135.000003" height="180" preserveAspectRatio="xMidYMid meet" version="1.2"><defs><clipPath id="88ffe7b290"><rect x="0" width="325" y="0" height="130"/></clipPath><clipPath id="b79deade70"><path d="M 18.890625 41.929688 L 69.039062 41.929688 L 69.039062 92.078125 L 18.890625 92.078125 Z M 18.890625 41.929688 "/></clipPath><clipPath id="6c156ff1f1"><path d="M 43.964844 41.929688 C 30.117188 41.929688 18.890625 53.15625 18.890625 67.003906 C 18.890625 80.851562 30.117188 92.078125 43.964844 92.078125 C 57.8125 92.078125 69.039062 80.851562 69.039062 67.003906 C 69.039062 53.15625 57.8125 41.929688 43.964844 41.929688 Z M 43.964844 41.929688 "/></clipPath><clipPath id="6ebbe6ffde"><path d="M 0.890625 0.929688 L 51.039062 0.929688 L 51.039062 51.078125 L 0.890625 51.078125 Z M 0.890625 0.929688 "/></clipPath><clipPath id="0b4e90d056"><path d="M 25.964844 0.929688 C 12.117188 0.929688 0.890625 12.15625 0.890625 26.003906 C 0.890625 39.851562 12.117188 51.078125 25.964844 51.078125 C 39.8125 51.078125 51.039062 39.851562 51.039062 26.003906 C 51.039062 12.15625 39.8125 0.929688 25.964844 0.929688 Z M 25.964844 0.929688 "/></clipPath><clipPath id="9926bf94d2"><rect x="0" width="52" y="0" height="52"/></clipPath><clipPath id="170ab9004d"><rect x="0" width="33" y="0" height="70"/></clipPath></defs><g id="7f54f65d13"><path style=" stroke:none;fill-rule:nonzero;fill:#1a20f0;fill-opacity:1;" d="M 85.515625 68.5625 C 84.644531 91.511719 65.339844 109.417969 42.390625 108.542969 C 19.449219 107.675781 1.539062 88.367188 2.410156 65.417969 C 3.289062 42.476562 22.585938 24.566406 45.535156 25.4375 C 68.476562 26.316406 86.382812 45.613281 85.515625 68.5625 Z M 68.945312 67.9375 C 68.976562 67.117188 68.96875 66.300781 68.917969 65.484375 C 68.871094 64.664062 68.78125 63.851562 68.652344 63.042969 C 68.523438 62.234375 68.351562 61.433594 68.144531 60.644531 C 67.9375 59.851562 67.691406 59.070312 67.40625 58.304688 C 67.121094 57.535156 66.800781 56.78125 66.441406 56.046875 C 66.082031 55.3125 65.691406 54.59375 65.261719 53.894531 C 64.832031 53.199219 64.371094 52.523438 63.875 51.871094 C 63.378906 51.21875 62.855469 50.59375 62.296875 49.992188 C 61.742188 49.390625 61.15625 48.820312 60.542969 48.277344 C 59.929688 47.734375 59.292969 47.222656 58.628906 46.742188 C 57.964844 46.261719 57.28125 45.816406 56.574219 45.402344 C 55.867188 44.988281 55.140625 44.613281 54.398438 44.269531 C 53.652344 43.929688 52.894531 43.625 52.121094 43.355469 C 51.347656 43.089844 50.5625 42.859375 49.765625 42.671875 C 48.96875 42.480469 48.164062 42.328125 47.351562 42.21875 C 46.542969 42.109375 45.726562 42.035156 44.910156 42.003906 C 44.089844 41.976562 43.273438 41.984375 42.453125 42.035156 C 41.636719 42.082031 40.824219 42.171875 40.015625 42.300781 C 39.207031 42.429688 38.40625 42.597656 37.613281 42.808594 C 36.824219 43.015625 36.042969 43.261719 35.273438 43.546875 C 34.507812 43.832031 33.753906 44.152344 33.019531 44.511719 C 32.28125 44.867188 31.566406 45.261719 30.867188 45.691406 C 30.171875 46.121094 29.496094 46.582031 28.84375 47.078125 C 28.191406 47.570312 27.566406 48.097656 26.964844 48.65625 C 26.363281 49.210938 25.792969 49.796875 25.25 50.410156 C 24.707031 51.023438 24.195312 51.660156 23.714844 52.324219 C 23.234375 52.984375 22.789062 53.671875 22.375 54.378906 C 21.960938 55.085938 21.582031 55.8125 21.242188 56.554688 C 20.898438 57.300781 20.597656 58.058594 20.328125 58.832031 C 20.0625 59.605469 19.832031 60.390625 19.644531 61.1875 C 19.453125 61.984375 19.300781 62.789062 19.191406 63.597656 C 19.082031 64.410156 19.007812 65.226562 18.976562 66.042969 C 18.945312 66.863281 18.957031 67.679688 19.003906 68.496094 C 19.054688 69.316406 19.144531 70.128906 19.273438 70.9375 C 19.402344 71.746094 19.570312 72.546875 19.78125 73.335938 C 19.988281 74.128906 20.234375 74.910156 20.519531 75.675781 C 20.800781 76.445312 21.125 77.195312 21.480469 77.933594 C 21.839844 78.667969 22.234375 79.386719 22.664062 80.082031 C 23.09375 80.78125 23.554688 81.457031 24.050781 82.109375 C 24.542969 82.761719 25.070312 83.386719 25.625 83.988281 C 26.183594 84.589844 26.769531 85.160156 27.382812 85.703125 C 27.992188 86.246094 28.632812 86.757812 29.296875 87.238281 C 29.957031 87.71875 30.644531 88.164062 31.351562 88.578125 C 32.058594 88.992188 32.78125 89.367188 33.527344 89.710938 C 34.269531 90.050781 35.03125 90.355469 35.804688 90.625 C 36.578125 90.890625 37.363281 91.121094 38.160156 91.308594 C 38.957031 91.5 39.761719 91.648438 40.570312 91.761719 C 41.382812 91.871094 42.199219 91.941406 43.015625 91.972656 C 43.835938 92.003906 44.652344 91.996094 45.46875 91.945312 C 46.285156 91.898438 47.101562 91.808594 47.910156 91.679688 C 48.71875 91.550781 49.515625 91.382812 50.308594 91.171875 C 51.101562 90.964844 51.882812 90.71875 52.648438 90.433594 C 53.417969 90.148438 54.167969 89.828125 54.90625 89.46875 C 55.640625 89.113281 56.359375 88.71875 57.054688 88.289062 C 57.753906 87.859375 58.429688 87.398438 59.082031 86.902344 C 59.734375 86.40625 60.359375 85.882812 60.960938 85.324219 C 61.558594 84.769531 62.132812 84.183594 62.675781 83.570312 C 63.21875 82.957031 63.730469 82.320312 64.210938 81.65625 C 64.691406 80.992188 65.136719 80.308594 65.550781 79.601562 C 65.964844 78.894531 66.339844 78.167969 66.683594 77.425781 C 67.023438 76.679688 67.328125 75.921875 67.597656 75.148438 C 67.863281 74.375 68.09375 73.589844 68.28125 72.792969 C 68.472656 71.996094 68.621094 71.191406 68.734375 70.378906 C 68.84375 69.570312 68.914062 68.753906 68.945312 67.9375 Z M 68.945312 67.9375 "/><path style=" stroke:none;fill-rule:nonzero;fill:#f84936;fill-opacity:1;" d="M 55.710938 44.917969 L 55.675781 44.898438 L 55.664062 44.898438 C 55.507812 44.8125 55.351562 44.730469 55.191406 44.652344 C 55.113281 44.609375 55.027344 44.566406 54.949219 44.527344 C 54.578125 44.347656 54.199219 44.171875 53.816406 44.007812 C 53.695312 43.957031 53.574219 43.90625 53.453125 43.859375 L 53.199219 43.757812 C 53.152344 43.738281 53.105469 43.71875 53.058594 43.703125 L 53 43.679688 C 52.871094 43.625 52.738281 43.578125 52.605469 43.527344 C 52.53125 43.5 52.464844 43.476562 52.390625 43.449219 C 52.378906 43.445312 52.367188 43.441406 52.351562 43.4375 C 52.222656 43.390625 52.089844 43.34375 51.957031 43.300781 L 51.9375 43.300781 L 51.804688 43.253906 L 51.710938 43.222656 L 51.527344 43.167969 L 51.257812 43.085938 C 51.226562 43.074219 51.195312 43.0625 51.164062 43.054688 L 51.144531 43.054688 C 50.976562 43.003906 50.808594 42.957031 50.636719 42.910156 L 50.355469 42.832031 C 50.234375 42.796875 50.109375 42.765625 49.976562 42.734375 L 49.855469 42.703125 C 49.789062 42.6875 49.722656 42.671875 49.65625 42.65625 L 49.582031 42.640625 L 49.457031 42.613281 L 49.171875 42.550781 L 48.824219 42.480469 L 48.535156 42.421875 C 48.382812 42.394531 48.230469 42.367188 48.078125 42.34375 C 48.042969 42.34375 48.007812 42.332031 47.96875 42.328125 L 47.917969 42.328125 C 47.800781 42.304688 47.675781 42.289062 47.554688 42.269531 L 47.542969 42.269531 L 47.417969 42.253906 C 47.363281 42.253906 47.304688 42.238281 47.25 42.230469 C 47.226562 42.226562 47.203125 42.222656 47.179688 42.222656 L 47.050781 42.207031 L 46.765625 42.171875 L 46.351562 42.128906 C 46.238281 42.117188 46.128906 42.105469 46.015625 42.097656 L 45.992188 42.097656 C 45.839844 42.085938 45.6875 42.074219 45.53125 42.066406 C 45.324219 42.054688 45.113281 42.039062 44.902344 42.03125 C 44.578125 42.019531 44.261719 42.015625 43.9375 42.015625 L 43.449219 42.015625 C 43.386719 42.015625 43.328125 42.015625 43.269531 42.015625 C 43.0625 42.015625 42.859375 42.027344 42.65625 42.035156 C 42.449219 42.046875 42.269531 42.058594 42.078125 42.074219 C 41.929688 42.074219 41.78125 42.097656 41.628906 42.109375 C 41.617188 42.113281 41.601562 42.113281 41.589844 42.109375 C 41.527344 42.109375 41.460938 42.121094 41.394531 42.128906 C 41.289062 42.128906 41.179688 42.152344 41.070312 42.164062 C 41 42.164062 40.929688 42.179688 40.855469 42.1875 L 40.691406 42.210938 C 40.621094 42.210938 40.546875 42.230469 40.472656 42.242188 C 40.355469 42.253906 40.246094 42.269531 40.128906 42.289062 C 40.011719 42.3125 39.847656 42.335938 39.707031 42.359375 L 39.582031 42.382812 C 39.4375 42.40625 39.296875 42.433594 39.148438 42.460938 C 39.058594 42.480469 38.96875 42.496094 38.871094 42.519531 L 38.570312 42.582031 C 38.570312 42.582031 38.558594 42.582031 38.554688 42.582031 L 38.300781 42.640625 L 38.269531 42.640625 C 38.136719 42.667969 38.007812 42.699219 37.878906 42.730469 C 37.699219 42.777344 37.507812 42.828125 37.324219 42.878906 L 37.191406 42.914062 C 37.035156 42.960938 36.875 43.003906 36.722656 43.050781 C 36.539062 43.105469 36.347656 43.167969 36.167969 43.234375 C 36.035156 43.277344 35.910156 43.320312 35.78125 43.363281 L 35.445312 43.484375 L 35.027344 43.636719 L 34.640625 43.789062 C 34.492188 43.851562 34.34375 43.914062 34.195312 43.972656 C 34.078125 44.023438 33.957031 44.070312 33.832031 44.125 C 33.808594 44.136719 33.785156 44.148438 33.761719 44.15625 L 27.898438 28.625 C 28.050781 28.5625 28.207031 28.496094 28.363281 28.433594 C 28.515625 28.371094 28.675781 28.308594 28.828125 28.253906 C 28.925781 28.214844 29.011719 28.175781 29.113281 28.140625 C 29.261719 28.085938 29.410156 28.027344 29.566406 27.972656 C 29.71875 27.917969 29.867188 27.863281 30.019531 27.808594 C 30.09375 27.78125 30.171875 27.75 30.25 27.726562 C 30.394531 27.675781 30.542969 27.625 30.6875 27.578125 C 30.71875 27.566406 30.746094 27.554688 30.777344 27.546875 C 30.921875 27.496094 31.066406 27.449219 31.210938 27.40625 C 31.355469 27.359375 31.53125 27.300781 31.691406 27.253906 C 31.855469 27.203125 31.96875 27.164062 32.109375 27.125 C 32.117188 27.125 32.121094 27.125 32.128906 27.125 C 32.628906 26.976562 33.128906 26.839844 33.640625 26.710938 L 34.144531 26.582031 C 34.3125 26.539062 34.476562 26.503906 34.644531 26.464844 L 35.21875 26.335938 C 35.410156 26.296875 35.605469 26.253906 35.800781 26.21875 C 36.128906 26.148438 36.460938 26.089844 36.792969 26.035156 L 37.289062 25.949219 L 37.835938 25.867188 C 38.125 25.824219 38.414062 25.785156 38.703125 25.75 L 38.886719 25.726562 L 38.941406 25.726562 C 39.203125 25.691406 39.464844 25.664062 39.730469 25.636719 C 39.902344 25.621094 40.074219 25.605469 40.25 25.589844 L 40.769531 25.546875 L 40.828125 25.546875 C 41.066406 25.527344 41.300781 25.515625 41.539062 25.496094 L 41.566406 25.496094 C 41.78125 25.488281 41.996094 25.476562 42.210938 25.46875 C 42.316406 25.46875 42.421875 25.457031 42.53125 25.457031 L 43.101562 25.4375 L 43.164062 25.4375 C 43.421875 25.4375 43.675781 25.4375 43.929688 25.4375 C 44.460938 25.4375 44.996094 25.449219 45.53125 25.46875 C 45.761719 25.46875 45.984375 25.488281 46.210938 25.5 C 46.433594 25.515625 46.628906 25.523438 46.835938 25.539062 L 46.917969 25.539062 C 47.078125 25.550781 47.238281 25.5625 47.398438 25.574219 C 47.605469 25.59375 47.8125 25.609375 48.015625 25.628906 C 48.398438 25.667969 48.785156 25.710938 49.164062 25.757812 L 49.261719 25.769531 L 49.859375 25.851562 L 50.457031 25.941406 C 50.609375 25.960938 50.765625 25.988281 50.921875 26.015625 L 51.195312 26.0625 C 51.53125 26.121094 51.867188 26.183594 52.199219 26.246094 L 52.257812 26.257812 L 52.5625 26.320312 L 52.847656 26.378906 C 53.03125 26.421875 53.222656 26.460938 53.40625 26.503906 C 53.414062 26.507812 53.421875 26.507812 53.433594 26.503906 C 53.632812 26.554688 53.828125 26.601562 54.027344 26.652344 C 54.226562 26.703125 54.441406 26.753906 54.644531 26.808594 C 55.054688 26.914062 55.460938 27.027344 55.863281 27.148438 L 55.90625 27.164062 L 56.339844 27.296875 C 56.746094 27.421875 57.15625 27.554688 57.558594 27.695312 C 57.738281 27.757812 57.921875 27.820312 58.085938 27.878906 C 58.253906 27.9375 58.472656 28.019531 58.664062 28.089844 C 58.8125 28.144531 58.964844 28.203125 59.113281 28.261719 C 59.523438 28.421875 59.929688 28.585938 60.332031 28.761719 C 60.613281 28.878906 60.894531 29.007812 61.171875 29.125 C 61.402344 29.230469 61.632812 29.335938 61.859375 29.445312 C 62.003906 29.515625 62.148438 29.582031 62.292969 29.65625 L 62.34375 29.679688 L 62.914062 29.964844 C 63.019531 30.015625 63.117188 30.070312 63.21875 30.125 C 63.316406 30.179688 63.375 30.203125 63.449219 30.25 C 63.59375 30.324219 63.738281 30.402344 63.882812 30.480469 L 63.953125 30.515625 C 63.988281 30.535156 64.023438 30.554688 64.054688 30.574219 L 64.445312 30.792969 C 64.625 30.894531 64.808594 31 64.980469 31.101562 C 65.152344 31.207031 65.320312 31.304688 65.488281 31.40625 C 65.660156 31.507812 65.824219 31.609375 65.988281 31.714844 C 66.152344 31.816406 66.277344 31.894531 66.417969 31.984375 C 66.453125 32.007812 66.484375 32.027344 66.515625 32.050781 C 66.671875 32.152344 66.824219 32.25 66.976562 32.351562 C 67.128906 32.453125 67.304688 32.570312 67.464844 32.683594 C 67.628906 32.796875 67.789062 32.90625 67.949219 33.019531 L 57.289062 45.832031 L 57.09375 45.710938 C 57.074219 45.699219 57.058594 45.6875 57.039062 45.675781 L 56.734375 45.496094 C 56.515625 45.367188 56.300781 45.242188 56.078125 45.117188 L 55.714844 44.917969 Z M 55.710938 44.917969 "/><path style=" stroke:none;fill-rule:nonzero;fill:#ffc023;fill-opacity:1;" d="M 67.953125 33.019531 L 57.292969 45.835938 C 58.433594 46.554688 59.507812 47.359375 60.515625 48.25 C 61.523438 49.140625 62.457031 50.105469 63.308594 51.148438 C 64.160156 52.191406 64.925781 53.292969 65.597656 54.457031 C 66.273438 55.621094 66.851562 56.832031 67.328125 58.09375 C 67.808594 59.351562 68.183594 60.636719 68.453125 61.957031 C 68.726562 63.273438 68.886719 64.605469 68.945312 65.953125 C 69 67.296875 68.949219 68.636719 68.785156 69.972656 C 68.625 71.3125 68.359375 72.625 67.984375 73.917969 C 67.613281 75.210938 67.136719 76.46875 66.5625 77.683594 C 65.988281 78.902344 65.316406 80.0625 64.554688 81.171875 C 63.789062 82.28125 62.941406 83.320312 62.011719 84.292969 C 61.078125 85.265625 60.074219 86.15625 59 86.964844 C 57.925781 87.773438 56.792969 88.492188 55.601562 89.117188 C 54.410156 89.746094 53.175781 90.273438 51.898438 90.699219 C 50.621094 91.125 49.320312 91.449219 47.992188 91.664062 C 46.660156 91.882812 45.324219 91.992188 43.980469 91.992188 C 43.660156 91.992188 43.339844 91.992188 43.015625 91.972656 C 41.371094 91.914062 39.75 91.691406 38.148438 91.3125 C 36.546875 90.929688 35 90.394531 33.503906 89.707031 C 32.007812 89.019531 30.597656 88.191406 29.265625 87.222656 C 27.933594 86.253906 26.710938 85.164062 25.597656 83.953125 L 14.9375 96.769531 C 16.765625 98.554688 18.738281 100.15625 20.859375 101.578125 C 22.984375 102.996094 25.21875 104.210938 27.566406 105.21875 C 29.914062 106.222656 32.332031 107.007812 34.824219 107.566406 C 37.316406 108.125 39.835938 108.449219 42.390625 108.542969 C 42.925781 108.5625 43.457031 108.574219 43.988281 108.574219 C 66.230469 108.574219 84.664062 90.976562 85.515625 68.5625 C 85.582031 66.839844 85.539062 65.121094 85.390625 63.402344 C 85.242188 61.683594 84.988281 59.984375 84.628906 58.296875 C 84.269531 56.609375 83.808594 54.953125 83.242188 53.324219 C 82.675781 51.695312 82.011719 50.109375 81.246094 48.5625 C 80.480469 47.015625 79.625 45.523438 78.675781 44.082031 C 77.726562 42.644531 76.691406 41.269531 75.570312 39.960938 C 74.449219 38.648438 73.25 37.414062 71.976562 36.253906 C 70.703125 35.089844 69.359375 34.011719 67.953125 33.019531 Z M 67.953125 33.019531 "/><g transform="matrix(1,0,0,1,93,2)"><g clip-path="url(#88ffe7b290)"><g style="fill:#000000;fill-opacity:1;"><g transform="translate(0.322385, 99.660124)"><path style="stroke:none" d="M 28.65625 -12.828125 C 32.320312 -12.828125 34.992188 -13.492188 36.671875 -14.828125 C 38.359375 -16.171875 39.203125 -18.25 39.203125 -21.0625 C 39.203125 -25.644531 35.84375 -27.9375 29.125 -27.9375 L 25.359375 -27.9375 C 24.816406 -27.9375 24.546875 -27.660156 24.546875 -27.109375 L 24.546875 -14.109375 C 24.546875 -13.554688 24.789062 -13.21875 25.28125 -13.09375 C 26.375 -12.914062 27.5 -12.828125 28.65625 -12.828125 Z M 24.546875 -52.75 L 24.546875 -41.578125 C 24.546875 -41.023438 24.816406 -40.75 25.359375 -40.75 L 27.296875 -40.75 C 34.316406 -40.75 37.828125 -43.039062 37.828125 -47.625 C 37.828125 -51.894531 34.769531 -54.03125 28.65625 -54.03125 C 27.5 -54.03125 26.375 -53.9375 25.28125 -53.75 C 24.789062 -53.632812 24.546875 -53.300781 24.546875 -52.75 Z M 40.65625 -35.171875 C 45.363281 -34.554688 49.117188 -32.753906 51.921875 -29.765625 C 54.734375 -26.773438 56.140625 -23.265625 56.140625 -19.234375 C 56.140625 -12.335938 53.894531 -7.253906 49.40625 -3.984375 C 44.914062 -0.710938 37.695312 0.921875 27.75 0.921875 C 22.675781 0.921875 17.394531 0.675781 11.90625 0.1875 C 10.4375 0.0625 9.195312 -0.5625 8.1875 -1.6875 C 7.1875 -2.820312 6.6875 -4.148438 6.6875 -5.671875 L 6.6875 -61.171875 C 6.6875 -62.640625 7.171875 -63.953125 8.140625 -65.109375 C 9.117188 -66.273438 10.34375 -66.914062 11.8125 -67.03125 C 17 -67.519531 22.003906 -67.765625 26.828125 -67.765625 C 45.148438 -67.765625 54.3125 -61.96875 54.3125 -50.375 C 54.3125 -46.457031 53.070312 -43.140625 50.59375 -40.421875 C 48.125 -37.710938 44.8125 -36.019531 40.65625 -35.34375 C 40.59375 -35.34375 40.5625 -35.3125 40.5625 -35.25 C 40.5625 -35.195312 40.59375 -35.171875 40.65625 -35.171875 Z M 40.65625 -35.171875 "/></g></g><g style="fill:#000000;fill-opacity:1;"><g transform="translate(59.020003, 99.660124)"><path style="stroke:none" d="M 46.34375 -47.625 C 47.738281 -47.625 48.957031 -47.101562 50 -46.0625 C 51.039062 -45.019531 51.5625 -43.800781 51.5625 -42.40625 L 51.5625 -5.21875 C 51.5625 -3.8125 51.039062 -2.585938 50 -1.546875 C 48.957031 -0.515625 47.738281 0 46.34375 0 L 40.109375 0 C 38.640625 0 37.382812 -0.5 36.34375 -1.5 C 35.3125 -2.507812 34.765625 -3.75 34.703125 -5.21875 L 34.703125 -5.953125 C 34.703125 -6.015625 34.671875 -6.046875 34.609375 -6.046875 C 34.492188 -6.046875 34.4375 -6.015625 34.4375 -5.953125 C 30.644531 -1.367188 25.972656 0.921875 20.421875 0.921875 C 15.046875 0.921875 11.179688 -0.570312 8.828125 -3.5625 C 6.484375 -6.5625 5.3125 -11.785156 5.3125 -19.234375 L 5.3125 -42.40625 C 5.3125 -43.800781 5.828125 -45.019531 6.859375 -46.0625 C 7.898438 -47.101562 9.125 -47.625 10.53125 -47.625 L 17.03125 -47.625 C 18.4375 -47.625 19.65625 -47.101562 20.6875 -46.0625 C 21.726562 -45.019531 22.25 -43.800781 22.25 -42.40625 L 22.25 -20.140625 C 22.25 -17.335938 22.628906 -15.414062 23.390625 -14.375 C 24.160156 -13.34375 25.460938 -12.828125 27.296875 -12.828125 C 29.003906 -12.828125 30.570312 -13.492188 32 -14.828125 C 33.4375 -16.171875 34.15625 -17.640625 34.15625 -19.234375 L 34.15625 -42.40625 C 34.15625 -43.800781 34.671875 -45.019531 35.703125 -46.0625 C 36.742188 -47.101562 37.96875 -47.625 39.375 -47.625 Z M 46.34375 -47.625 "/></g></g><g style="fill:#000000;fill-opacity:1;"><g transform="translate(116.344046, 99.660124)"><path style="stroke:none" d="M 38.734375 -23.625 L 49.1875 -4.578125 C 49.726562 -3.535156 49.691406 -2.507812 49.078125 -1.5 C 48.472656 -0.5 47.59375 0 46.4375 0 L 38.375 0 C 36.84375 0 35.421875 -0.441406 34.109375 -1.328125 C 32.796875 -2.210938 31.835938 -3.390625 31.234375 -4.859375 L 26.84375 -15.75 C 26.84375 -15.8125 26.8125 -15.84375 26.75 -15.84375 C 26.6875 -15.84375 26.65625 -15.8125 26.65625 -15.75 L 22.25 -4.859375 C 21.644531 -3.390625 20.703125 -2.210938 19.421875 -1.328125 C 18.140625 -0.441406 16.703125 0 15.109375 0 L 7.421875 0 C 6.265625 0 5.378906 -0.5 4.765625 -1.5 C 4.148438 -2.507812 4.117188 -3.535156 4.671875 -4.578125 L 15.109375 -23.625 C 15.359375 -24.050781 15.359375 -24.476562 15.109375 -24.90625 L 5.125 -43.046875 C 4.582031 -44.078125 4.613281 -45.097656 5.21875 -46.109375 C 5.832031 -47.117188 6.71875 -47.625 7.875 -47.625 L 15.9375 -47.625 C 17.519531 -47.625 18.953125 -47.179688 20.234375 -46.296875 C 21.523438 -45.410156 22.441406 -44.234375 22.984375 -42.765625 L 27.015625 -32.515625 C 27.015625 -32.453125 27.046875 -32.421875 27.109375 -32.421875 C 27.171875 -32.421875 27.203125 -32.453125 27.203125 -32.515625 L 31.234375 -42.765625 C 31.785156 -44.234375 32.703125 -45.410156 33.984375 -46.296875 C 35.265625 -47.179688 36.695312 -47.625 38.28125 -47.625 L 45.96875 -47.625 C 47.132812 -47.625 48.019531 -47.117188 48.625 -46.109375 C 49.238281 -45.097656 49.269531 -44.078125 48.71875 -43.046875 L 38.734375 -24.90625 C 38.492188 -24.476562 38.492188 -24.050781 38.734375 -23.625 Z M 38.734375 -23.625 "/></g></g><g style="fill:#000000;fill-opacity:1;"><g transform="translate(163.96093, 99.660124)"><path style="stroke:none" d="M 52.296875 -66.859375 C 53.691406 -66.859375 54.910156 -66.335938 55.953125 -65.296875 C 56.992188 -64.253906 57.515625 -63.03125 57.515625 -61.625 L 57.515625 -56.96875 C 57.515625 -55.5625 56.992188 -54.335938 55.953125 -53.296875 C 54.910156 -52.253906 53.691406 -51.734375 52.296875 -51.734375 L 41.125 -51.734375 C 40.570312 -51.734375 40.296875 -51.460938 40.296875 -50.921875 L 40.296875 -5.21875 C 40.296875 -3.8125 39.789062 -2.585938 38.78125 -1.546875 C 37.769531 -0.515625 36.566406 0 35.171875 0 L 26.734375 0 C 25.335938 0 24.132812 -0.515625 23.125 -1.546875 C 22.113281 -2.585938 21.609375 -3.8125 21.609375 -5.21875 L 21.609375 -50.921875 C 21.609375 -51.460938 21.332031 -51.734375 20.78125 -51.734375 L 9.609375 -51.734375 C 8.210938 -51.734375 6.992188 -52.253906 5.953125 -53.296875 C 4.910156 -54.335938 4.390625 -55.5625 4.390625 -56.96875 L 4.390625 -61.625 C 4.390625 -63.03125 4.910156 -64.253906 5.953125 -65.296875 C 6.992188 -66.335938 8.210938 -66.859375 9.609375 -66.859375 Z M 52.296875 -66.859375 "/></g></g><g style="fill:#000000;fill-opacity:1;"><g transform="translate(218.536949, 99.660124)"><path style="stroke:none" d="M 31.875 -19.234375 L 31.875 -19.78125 C 31.875 -20.332031 31.597656 -20.609375 31.046875 -20.609375 L 28.203125 -20.609375 C 22.097656 -20.609375 19.046875 -18.773438 19.046875 -15.109375 C 19.046875 -12.359375 20.570312 -10.984375 23.625 -10.984375 C 26.007812 -10.984375 27.976562 -11.734375 29.53125 -13.234375 C 31.09375 -14.734375 31.875 -16.734375 31.875 -19.234375 Z M 26.375 -48.53125 C 34.4375 -48.53125 40.265625 -47.066406 43.859375 -44.140625 C 47.460938 -41.210938 49.265625 -36.570312 49.265625 -30.21875 L 49.265625 -5.21875 C 49.265625 -3.8125 48.742188 -2.585938 47.703125 -1.546875 C 46.671875 -0.515625 45.453125 0 44.046875 0 L 38.28125 0 C 36.8125 0 35.554688 -0.5 34.515625 -1.5 C 33.484375 -2.507812 32.9375 -3.75 32.875 -5.21875 L 32.875 -5.953125 C 32.875 -6.015625 32.84375 -6.046875 32.78125 -6.046875 C 32.71875 -6.046875 32.660156 -6.015625 32.609375 -5.953125 C 28.691406 -1.367188 23.863281 0.921875 18.125 0.921875 C 13.851562 0.921875 10.34375 -0.4375 7.59375 -3.15625 C 4.851562 -5.875 3.484375 -9.398438 3.484375 -13.734375 C 3.484375 -24.722656 11.722656 -30.21875 28.203125 -30.21875 L 31.046875 -30.21875 C 31.597656 -30.21875 31.875 -30.492188 31.875 -31.046875 L 31.875 -31.140625 C 31.875 -34.796875 29.734375 -36.625 25.453125 -36.625 C 21.796875 -36.625 17.066406 -36.078125 11.265625 -34.984375 C 9.984375 -34.734375 8.820312 -35.019531 7.78125 -35.84375 C 6.75 -36.675781 6.234375 -37.765625 6.234375 -39.109375 L 6.234375 -40.5625 C 6.234375 -42.09375 6.703125 -43.46875 7.640625 -44.6875 C 8.585938 -45.90625 9.796875 -46.640625 11.265625 -46.890625 C 17.304688 -47.984375 22.34375 -48.53125 26.375 -48.53125 Z M 26.375 -48.53125 "/></g></g><g style="fill:#000000;fill-opacity:1;"><g transform="translate(272.198019, 99.660124)"><path style="stroke:none" d="M 38.734375 -23.625 L 49.1875 -4.578125 C 49.726562 -3.535156 49.691406 -2.507812 49.078125 -1.5 C 48.472656 -0.5 47.59375 0 46.4375 0 L 38.375 0 C 36.84375 0 35.421875 -0.441406 34.109375 -1.328125 C 32.796875 -2.210938 31.835938 -3.390625 31.234375 -4.859375 L 26.84375 -15.75 C 26.84375 -15.8125 26.8125 -15.84375 26.75 -15.84375 C 26.6875 -15.84375 26.65625 -15.8125 26.65625 -15.75 L 22.25 -4.859375 C 21.644531 -3.390625 20.703125 -2.210938 19.421875 -1.328125 C 18.140625 -0.441406 16.703125 0 15.109375 0 L 7.421875 0 C 6.265625 0 5.378906 -0.5 4.765625 -1.5 C 4.148438 -2.507812 4.117188 -3.535156 4.671875 -4.578125 L 15.109375 -23.625 C 15.359375 -24.050781 15.359375 -24.476562 15.109375 -24.90625 L 5.125 -43.046875 C 4.582031 -44.078125 4.613281 -45.097656 5.21875 -46.109375 C 5.832031 -47.117188 6.71875 -47.625 7.875 -47.625 L 15.9375 -47.625 C 17.519531 -47.625 18.953125 -47.179688 20.234375 -46.296875 C 21.523438 -45.410156 22.441406 -44.234375 22.984375 -42.765625 L 27.015625 -32.515625 C 27.015625 -32.453125 27.046875 -32.421875 27.109375 -32.421875 C 27.171875 -32.421875 27.203125 -32.453125 27.203125 -32.515625 L 31.234375 -42.765625 C 31.785156 -44.234375 32.703125 -45.410156 33.984375 -46.296875 C 35.265625 -47.179688 36.695312 -47.625 38.28125 -47.625 L 45.96875 -47.625 C 47.132812 -47.625 48.019531 -47.117188 48.625 -46.109375 C 49.238281 -45.097656 49.269531 -44.078125 48.71875 -43.046875 L 38.734375 -24.90625 C 38.492188 -24.476562 38.492188 -24.050781 38.734375 -23.625 Z M 38.734375 -23.625 "/></g></g></g></g><g clip-rule="nonzero" clip-path="url(#b79deade70)"><g clip-rule="nonzero" clip-path="url(#6c156ff1f1)"><g transform="matrix(1,0,0,1,18,41)"><g clip-path="url(#9926bf94d2)"><g clip-rule="nonzero" clip-path="url(#6ebbe6ffde)"><g clip-rule="nonzero" clip-path="url(#0b4e90d056)"><path style=" stroke:none;fill-rule:nonzero;fill:#fafaee;fill-opacity:1;" d="M 0.890625 0.929688 L 51.039062 0.929688 L 51.039062 51.078125 L 0.890625 51.078125 Z M 0.890625 0.929688 "/></g></g></g></g></g></g><g transform="matrix(1,0,0,1,28,32)"><g clip-path="url(#170ab9004d)"><g style="fill:#000000;fill-opacity:1;"><g transform="translate(1.154351, 53.042136)"><path style="stroke:none" d="M 15.25 -6.8125 C 17.195312 -6.8125 18.613281 -7.171875 19.5 -7.890625 C 20.394531 -8.609375 20.84375 -9.710938 20.84375 -11.203125 C 20.84375 -13.640625 19.054688 -14.859375 15.484375 -14.859375 L 13.484375 -14.859375 C 13.191406 -14.859375 13.046875 -14.710938 13.046875 -14.421875 L 13.046875 -7.5 C 13.046875 -7.207031 13.175781 -7.03125 13.4375 -6.96875 C 14.019531 -6.863281 14.625 -6.8125 15.25 -6.8125 Z M 13.046875 -28.046875 L 13.046875 -22.109375 C 13.046875 -21.816406 13.191406 -21.671875 13.484375 -21.671875 L 14.515625 -21.671875 C 18.242188 -21.671875 20.109375 -22.890625 20.109375 -25.328125 C 20.109375 -27.597656 18.488281 -28.734375 15.25 -28.734375 C 14.625 -28.734375 14.019531 -28.6875 13.4375 -28.59375 C 13.175781 -28.519531 13.046875 -28.335938 13.046875 -28.046875 Z M 21.625 -18.703125 C 24.125 -18.378906 26.117188 -17.421875 27.609375 -15.828125 C 29.109375 -14.234375 29.859375 -12.367188 29.859375 -10.234375 C 29.859375 -6.554688 28.664062 -3.847656 26.28125 -2.109375 C 23.894531 -0.378906 20.050781 0.484375 14.75 0.484375 C 12.0625 0.484375 9.253906 0.351562 6.328125 0.09375 C 5.546875 0.03125 4.890625 -0.296875 4.359375 -0.890625 C 3.828125 -1.492188 3.5625 -2.203125 3.5625 -3.015625 L 3.5625 -32.53125 C 3.5625 -33.3125 3.816406 -34.007812 4.328125 -34.625 C 4.847656 -35.238281 5.5 -35.582031 6.28125 -35.65625 C 9.039062 -35.914062 11.703125 -36.046875 14.265625 -36.046875 C 24.003906 -36.046875 28.875 -32.957031 28.875 -26.78125 C 28.875 -24.707031 28.21875 -22.945312 26.90625 -21.5 C 25.59375 -20.050781 23.832031 -19.148438 21.625 -18.796875 C 21.59375 -18.796875 21.578125 -18.78125 21.578125 -18.75 C 21.578125 -18.71875 21.59375 -18.703125 21.625 -18.703125 Z M 21.625 -18.703125 "/></g></g></g></g></g></svg>