<svg xmlns="http://www.w3.org/2000/svg" xmlns:xlink="http://www.w3.org/1999/xlink" width="500" zoomAndPan="magnify" viewBox="0 0 375 374.999991" height="500" preserveAspectRatio="xMidYMid meet" version="1.2"><defs><clipPath id="3154e5dd4f"><path d="M 75.390625 75.390625 L 299.609375 75.390625 L 299.609375 299.609375 L 75.390625 299.609375 Z M 75.390625 75.390625 "/></clipPath><clipPath id="d4db51bd2d"><path d="M 187.5 75.390625 C 125.585938 75.390625 75.390625 125.585938 75.390625 187.5 C 75.390625 249.414062 125.585938 299.609375 187.5 299.609375 C 249.414062 299.609375 299.609375 249.414062 299.609375 187.5 C 299.609375 125.585938 249.414062 75.390625 187.5 75.390625 Z M 187.5 75.390625 "/></clipPath></defs><g id="f96162f31f"><path style=" stroke:none;fill-rule:nonzero;fill:#1a20f0;fill-opacity:1;" d="M 370.664062 194.257812 C 366.835938 295.492188 281.660156 374.492188 180.421875 370.625 C 79.21875 366.792969 0.21875 281.617188 4.054688 180.382812 C 7.925781 79.175781 93.058594 0.179688 194.296875 4.015625 C 295.5 7.882812 374.5 93.019531 370.664062 194.257812 Z M 297.574219 191.492188 C 297.644531 189.6875 297.667969 187.882812 297.648438 186.078125 C 297.628906 184.273438 297.5625 182.472656 297.453125 180.667969 C 297.34375 178.867188 297.191406 177.070312 296.996094 175.277344 C 296.796875 173.480469 296.558594 171.691406 296.273438 169.910156 C 295.988281 168.128906 295.660156 166.355469 295.285156 164.585938 C 294.914062 162.820312 294.5 161.066406 294.042969 159.320312 C 293.582031 157.574219 293.082031 155.839844 292.539062 154.117188 C 291.996094 152.398438 291.410156 150.691406 290.78125 148.996094 C 290.15625 147.304688 289.488281 145.628906 288.777344 143.96875 C 288.066406 142.308594 287.320312 140.667969 286.527344 139.042969 C 285.738281 137.421875 284.910156 135.820312 284.039062 134.238281 C 283.171875 132.65625 282.265625 131.09375 281.320312 129.554688 C 280.375 128.019531 279.390625 126.503906 278.371094 125.015625 C 277.351562 123.527344 276.296875 122.0625 275.203125 120.625 C 274.113281 119.1875 272.988281 117.777344 271.828125 116.394531 C 270.664062 115.011719 269.472656 113.660156 268.246094 112.335938 C 267.019531 111.011719 265.757812 109.71875 264.46875 108.457031 C 263.175781 107.195312 261.855469 105.964844 260.503906 104.769531 C 259.15625 103.570312 257.773438 102.410156 256.367188 101.277344 C 254.957031 100.148438 253.523438 99.054688 252.0625 97.996094 C 250.601562 96.9375 249.113281 95.914062 247.601562 94.929688 C 246.089844 93.945312 244.554688 92.996094 242.996094 92.085938 C 241.4375 91.175781 239.855469 90.300781 238.253906 89.46875 C 236.652344 88.636719 235.03125 87.84375 233.394531 87.089844 C 231.753906 86.335938 230.09375 85.625 228.417969 84.953125 C 226.746094 84.28125 225.054688 83.648438 223.347656 83.058594 C 221.640625 82.472656 219.921875 81.925781 218.1875 81.421875 C 216.453125 80.914062 214.710938 80.453125 212.953125 80.035156 C 211.199219 79.617188 209.433594 79.242188 207.660156 78.910156 C 205.886719 78.574219 204.105469 78.289062 202.316406 78.042969 C 200.527344 77.796875 198.734375 77.597656 196.9375 77.441406 C 195.136719 77.285156 193.335938 77.171875 191.53125 77.101562 C 189.730469 77.035156 187.925781 77.011719 186.121094 77.03125 C 184.316406 77.050781 182.511719 77.117188 180.710938 77.222656 C 178.90625 77.332031 177.109375 77.488281 175.316406 77.683594 C 173.519531 77.878906 171.734375 78.121094 169.949219 78.40625 C 168.167969 78.691406 166.394531 79.019531 164.628906 79.390625 C 162.859375 79.765625 161.105469 80.179688 159.359375 80.636719 C 157.613281 81.097656 155.878906 81.597656 154.160156 82.140625 C 152.4375 82.683594 150.730469 83.269531 149.039062 83.894531 C 147.34375 84.523438 145.667969 85.191406 144.007812 85.902344 C 142.347656 86.609375 140.707031 87.359375 139.085938 88.148438 C 137.460938 88.941406 135.859375 89.769531 134.277344 90.636719 C 132.695312 91.507812 131.132812 92.414062 129.597656 93.359375 C 128.058594 94.304688 126.546875 95.289062 125.054688 96.308594 C 123.566406 97.328125 122.101562 98.382812 120.664062 99.472656 C 119.226562 100.566406 117.816406 101.691406 116.433594 102.851562 C 115.054688 104.011719 113.699219 105.207031 112.375 106.433594 C 111.050781 107.660156 109.757812 108.917969 108.496094 110.210938 C 107.234375 111.5 106.007812 112.820312 104.808594 114.171875 C 103.613281 115.523438 102.449219 116.902344 101.320312 118.3125 C 100.191406 119.71875 99.097656 121.15625 98.035156 122.617188 C 96.976562 124.078125 95.957031 125.566406 94.96875 127.078125 C 93.984375 128.589844 93.035156 130.125 92.125 131.683594 C 91.214844 133.242188 90.34375 134.820312 89.507812 136.421875 C 88.675781 138.023438 87.882812 139.644531 87.128906 141.285156 C 86.375 142.925781 85.664062 144.582031 84.992188 146.257812 C 84.320312 147.933594 83.691406 149.625 83.101562 151.332031 C 82.511719 153.039062 81.964844 154.757812 81.460938 156.492188 C 80.957031 158.222656 80.492188 159.96875 80.074219 161.722656 C 79.65625 163.480469 79.28125 165.246094 78.949219 167.019531 C 78.617188 168.792969 78.328125 170.574219 78.082031 172.363281 C 77.839844 174.152344 77.636719 175.945312 77.480469 177.742188 C 77.324219 179.539062 77.210938 181.34375 77.144531 183.144531 C 77.074219 184.949219 77.050781 186.753906 77.070312 188.558594 C 77.089844 190.363281 77.15625 192.167969 77.265625 193.96875 C 77.375 195.769531 77.527344 197.570312 77.722656 199.363281 C 77.921875 201.15625 78.160156 202.945312 78.445312 204.726562 C 78.730469 206.511719 79.058594 208.285156 79.433594 210.050781 C 79.804688 211.816406 80.21875 213.574219 80.675781 215.320312 C 81.136719 217.066406 81.636719 218.800781 82.179688 220.519531 C 82.722656 222.242188 83.308594 223.949219 83.9375 225.640625 C 84.5625 227.332031 85.230469 229.011719 85.941406 230.667969 C 86.652344 232.328125 87.398438 233.972656 88.191406 235.59375 C 88.980469 237.21875 89.808594 238.820312 90.679688 240.402344 C 91.546875 241.984375 92.453125 243.542969 93.398438 245.082031 C 94.34375 246.621094 95.328125 248.132812 96.347656 249.621094 C 97.367188 251.113281 98.421875 252.574219 99.515625 254.011719 C 100.605469 255.449219 101.730469 256.859375 102.890625 258.242188 C 104.054688 259.625 105.246094 260.980469 106.472656 262.300781 C 107.699219 263.625 108.960938 264.917969 110.25 266.179688 C 111.542969 267.441406 112.863281 268.671875 114.214844 269.871094 C 115.5625 271.066406 116.945312 272.230469 118.351562 273.359375 C 119.761719 274.488281 121.195312 275.582031 122.65625 276.640625 C 124.117188 277.699219 125.605469 278.722656 127.117188 279.707031 C 128.628906 280.695312 130.164062 281.644531 131.722656 282.554688 C 133.28125 283.464844 134.863281 284.335938 136.464844 285.167969 C 138.066406 286 139.683594 286.796875 141.324219 287.546875 C 142.964844 288.300781 144.625 289.015625 146.300781 289.6875 C 147.972656 290.359375 149.664062 290.988281 151.371094 291.578125 C 153.078125 292.167969 154.796875 292.714844 156.53125 293.21875 C 158.265625 293.722656 160.007812 294.183594 161.765625 294.601562 C 163.519531 295.023438 165.285156 295.398438 167.058594 295.730469 C 168.832031 296.0625 170.613281 296.351562 172.402344 296.59375 C 174.191406 296.839844 175.984375 297.042969 177.78125 297.199219 C 179.582031 297.355469 181.382812 297.46875 183.1875 297.535156 C 184.988281 297.605469 186.792969 297.628906 188.597656 297.609375 C 190.402344 297.585938 192.207031 297.523438 194.007812 297.414062 C 195.8125 297.304688 197.609375 297.152344 199.402344 296.953125 C 201.199219 296.757812 202.984375 296.515625 204.769531 296.230469 C 206.550781 295.945312 208.324219 295.617188 210.089844 295.246094 C 211.859375 294.875 213.613281 294.460938 215.359375 294 C 217.105469 293.542969 218.839844 293.042969 220.558594 292.5 C 222.28125 291.953125 223.988281 291.371094 225.679688 290.742188 C 227.375 290.117188 229.050781 289.445312 230.710938 288.738281 C 232.371094 288.027344 234.011719 287.277344 235.632812 286.488281 C 237.257812 285.699219 238.859375 284.867188 240.441406 284 C 242.023438 283.132812 243.585938 282.222656 245.121094 281.277344 C 246.660156 280.332031 248.171875 279.351562 249.664062 278.332031 C 251.152344 277.3125 252.617188 276.257812 254.054688 275.164062 C 255.492188 274.074219 256.902344 272.945312 258.285156 271.785156 C 259.664062 270.625 261.019531 269.433594 262.34375 268.203125 C 263.667969 266.976562 264.960938 265.71875 266.222656 264.429688 C 267.484375 263.136719 268.710938 261.816406 269.910156 260.464844 C 271.105469 259.113281 272.269531 257.734375 273.398438 256.328125 C 274.527344 254.917969 275.621094 253.484375 276.683594 252.023438 C 277.742188 250.558594 278.761719 249.074219 279.75 247.5625 C 280.734375 246.050781 281.683594 244.515625 282.59375 242.957031 C 283.503906 241.398438 284.375 239.816406 285.210938 238.214844 C 286.042969 236.613281 286.835938 234.992188 287.589844 233.351562 C 288.34375 231.710938 289.054688 230.054688 289.726562 228.378906 C 290.398438 226.703125 291.027344 225.011719 291.617188 223.308594 C 292.207031 221.601562 292.753906 219.882812 293.257812 218.148438 C 293.761719 216.414062 294.222656 214.671875 294.644531 212.914062 C 295.0625 211.160156 295.4375 209.394531 295.769531 207.621094 C 296.101562 205.84375 296.390625 204.0625 296.636719 202.277344 C 296.878906 200.488281 297.082031 198.695312 297.238281 196.894531 C 297.394531 195.097656 297.507812 193.296875 297.574219 191.492188 Z M 297.574219 191.492188 "/><path style=" stroke:none;fill-rule:nonzero;fill:#f84936;fill-opacity:1;" d="M 239.1875 89.945312 L 239.035156 89.855469 L 238.988281 89.855469 C 238.296875 89.480469 237.601562 89.121094 236.894531 88.773438 C 236.542969 88.582031 236.175781 88.40625 235.824219 88.230469 C 234.183594 87.429688 232.515625 86.664062 230.824219 85.9375 C 230.296875 85.707031 229.765625 85.480469 229.222656 85.273438 L 228.109375 84.824219 C 227.910156 84.746094 227.699219 84.65625 227.492188 84.585938 L 227.234375 84.480469 C 226.660156 84.25 226.074219 84.03125 225.488281 83.824219 C 225.167969 83.695312 224.863281 83.589844 224.542969 83.480469 C 224.492188 83.453125 224.433594 83.433594 224.375 83.421875 C 223.792969 83.214844 223.207031 83.007812 222.621094 82.8125 L 222.542969 82.8125 L 221.949219 82.605469 L 221.539062 82.476562 L 220.738281 82.230469 L 219.546875 81.867188 C 219.40625 81.816406 219.265625 81.769531 219.121094 81.734375 L 219.050781 81.734375 C 218.296875 81.507812 217.558594 81.292969 216.804688 81.09375 L 215.5625 80.746094 C 215.03125 80.597656 214.46875 80.453125 213.882812 80.316406 L 213.351562 80.1875 C 213.066406 80.105469 212.769531 80.042969 212.480469 79.980469 L 212.152344 79.898438 L 211.589844 79.777344 L 210.332031 79.507812 L 208.8125 79.195312 L 207.53125 78.9375 C 206.863281 78.816406 206.191406 78.695312 205.519531 78.601562 C 205.359375 78.601562 205.199219 78.542969 205.039062 78.519531 L 204.804688 78.519531 C 204.285156 78.417969 203.75 78.34375 203.203125 78.273438 L 203.148438 78.273438 L 202.601562 78.191406 C 202.363281 78.191406 202.105469 78.121094 201.859375 78.097656 C 201.757812 78.074219 201.65625 78.0625 201.554688 78.054688 L 200.984375 77.984375 L 199.726562 77.832031 L 197.894531 77.648438 C 197.398438 77.589844 196.914062 77.542969 196.417969 77.511719 L 196.308594 77.511719 C 195.632812 77.457031 194.960938 77.410156 194.289062 77.367188 C 193.359375 77.3125 192.429688 77.253906 191.507812 77.222656 C 190.082031 77.167969 188.671875 77.144531 187.253906 77.144531 L 185.101562 77.144531 C 184.820312 77.144531 184.554688 77.144531 184.300781 77.144531 C 183.394531 77.144531 182.496094 77.199219 181.59375 77.238281 C 180.6875 77.277344 179.894531 77.34375 179.050781 77.40625 C 178.394531 77.40625 177.730469 77.503906 177.074219 77.566406 C 177.011719 77.570312 176.949219 77.570312 176.890625 77.566406 C 176.609375 77.566406 176.320312 77.617188 176.03125 77.648438 C 175.558594 77.648438 175.085938 77.742188 174.605469 77.800781 C 174.285156 77.800781 173.972656 77.863281 173.652344 77.910156 L 172.933594 78.007812 C 172.613281 78.007812 172.292969 78.089844 171.964844 78.144531 C 171.449219 78.199219 170.960938 78.273438 170.449219 78.359375 C 169.9375 78.449219 169.207031 78.554688 168.582031 78.664062 L 168.039062 78.761719 C 167.398438 78.875 166.773438 78.984375 166.132812 79.113281 C 165.722656 79.195312 165.332031 79.265625 164.90625 79.371094 L 163.566406 79.640625 C 163.566406 79.640625 163.519531 79.640625 163.496094 79.640625 L 162.382812 79.898438 L 162.238281 79.898438 C 161.652344 80.019531 161.09375 80.164062 160.523438 80.308594 C 159.722656 80.5 158.882812 80.722656 158.082031 80.949219 L 157.496094 81.109375 C 156.800781 81.308594 156.101562 81.507812 155.421875 81.71875 C 154.621094 81.957031 153.769531 82.222656 152.96875 82.519531 C 152.394531 82.710938 151.832031 82.894531 151.273438 83.09375 L 149.789062 83.625 L 147.949219 84.304688 L 146.242188 84.976562 C 145.578125 85.25 144.929688 85.515625 144.277344 85.777344 C 143.75 86.003906 143.230469 86.21875 142.675781 86.449219 C 142.566406 86.5 142.46875 86.554688 142.355469 86.59375 L 116.492188 18.082031 C 117.171875 17.792969 117.859375 17.503906 118.542969 17.234375 C 119.222656 16.960938 119.917969 16.679688 120.601562 16.429688 C 121.023438 16.261719 121.402344 16.09375 121.847656 15.941406 C 122.515625 15.695312 123.171875 15.4375 123.84375 15.199219 C 124.515625 14.957031 125.183594 14.710938 125.855469 14.476562 C 126.183594 14.347656 126.527344 14.21875 126.871094 14.117188 C 127.511719 13.882812 128.160156 13.660156 128.800781 13.453125 C 128.929688 13.398438 129.0625 13.355469 129.195312 13.316406 C 129.828125 13.097656 130.46875 12.890625 131.109375 12.691406 C 131.75 12.492188 132.519531 12.234375 133.234375 12.019531 C 133.945312 11.800781 134.457031 11.632812 135.074219 11.457031 C 135.101562 11.453125 135.128906 11.453125 135.15625 11.457031 C 137.359375 10.808594 139.578125 10.191406 141.820312 9.621094 L 144.054688 9.0625 C 144.785156 8.878906 145.511719 8.710938 146.257812 8.542969 L 148.789062 7.980469 C 149.636719 7.796875 150.488281 7.621094 151.351562 7.453125 C 152.808594 7.15625 154.261719 6.890625 155.734375 6.652344 L 157.929688 6.273438 L 160.332031 5.914062 C 161.605469 5.722656 162.886719 5.546875 164.160156 5.386719 L 164.960938 5.28125 L 165.203125 5.28125 C 166.363281 5.136719 167.515625 5.015625 168.6875 4.894531 C 169.449219 4.816406 170.207031 4.753906 170.984375 4.6875 L 173.277344 4.496094 L 173.542969 4.496094 C 174.582031 4.414062 175.625 4.351562 176.671875 4.28125 L 176.792969 4.28125 C 177.738281 4.230469 178.683594 4.183594 179.628906 4.152344 C 180.09375 4.152344 180.566406 4.101562 181.046875 4.09375 L 183.570312 4.015625 L 183.84375 4.015625 C 184.972656 4.015625 186.09375 4.015625 187.222656 4.015625 C 189.5625 4.015625 191.925781 4.0625 194.28125 4.152344 C 195.289062 4.152344 196.28125 4.238281 197.277344 4.296875 C 198.269531 4.351562 199.117188 4.390625 200.039062 4.457031 L 200.390625 4.457031 C 201.097656 4.511719 201.816406 4.558594 202.523438 4.625 C 203.429688 4.695312 204.339844 4.777344 205.246094 4.863281 C 206.9375 5.03125 208.628906 5.214844 210.300781 5.425781 L 210.734375 5.480469 L 213.378906 5.832031 L 216.011719 6.234375 C 216.6875 6.332031 217.375 6.441406 218.054688 6.5625 L 219.273438 6.769531 C 220.746094 7.035156 222.230469 7.300781 223.695312 7.570312 L 223.953125 7.628906 L 225.296875 7.898438 L 226.5625 8.171875 C 227.363281 8.347656 228.203125 8.523438 229.023438 8.726562 C 229.058594 8.734375 229.097656 8.734375 229.132812 8.726562 C 230.015625 8.933594 230.886719 9.140625 231.761719 9.367188 C 232.632812 9.589844 233.578125 9.816406 234.484375 10.0625 C 236.296875 10.53125 238.089844 11.035156 239.867188 11.570312 L 240.050781 11.625 L 241.96875 12.210938 C 243.761719 12.761719 245.5625 13.355469 247.332031 13.980469 C 248.136719 14.246094 248.9375 14.515625 249.671875 14.78125 C 250.410156 15.046875 251.371094 15.398438 252.210938 15.71875 C 252.878906 15.957031 253.535156 16.214844 254.191406 16.472656 C 256 17.175781 257.796875 17.910156 259.574219 18.675781 C 260.816406 19.203125 262.058594 19.753906 263.28125 20.277344 C 264.292969 20.742188 265.308594 21.207031 266.3125 21.6875 C 266.953125 22 267.59375 22.296875 268.226562 22.617188 L 268.449219 22.726562 L 270.964844 23.992188 C 271.421875 24.21875 271.863281 24.449219 272.300781 24.691406 C 272.742188 24.929688 273 25.042969 273.328125 25.234375 C 273.96875 25.5625 274.601562 25.90625 275.234375 26.261719 L 275.546875 26.421875 C 275.699219 26.507812 275.859375 26.589844 275.996094 26.675781 L 277.71875 27.636719 C 278.519531 28.085938 279.320312 28.542969 280.082031 29.007812 C 280.84375 29.472656 281.570312 29.890625 282.324219 30.335938 C 283.078125 30.785156 283.796875 31.242188 284.527344 31.699219 C 285.253906 32.15625 285.792969 32.5 286.417969 32.902344 C 286.570312 32.988281 286.714844 33.085938 286.859375 33.1875 C 287.539062 33.628906 288.21875 34.070312 288.890625 34.519531 C 289.566406 34.96875 290.328125 35.480469 291.046875 35.976562 C 291.769531 36.472656 292.472656 36.960938 293.179688 37.457031 L 246.15625 93.980469 L 245.285156 93.453125 C 245.207031 93.398438 245.125 93.347656 245.042969 93.300781 L 243.707031 92.5 C 242.742188 91.9375 241.789062 91.378906 240.804688 90.832031 L 239.203125 89.953125 Z M 239.1875 89.945312 "/><path style=" stroke:none;fill-rule:nonzero;fill:#ffc023;fill-opacity:1;" d="M 293.1875 37.457031 L 246.171875 93.996094 C 248.679688 95.578125 251.121094 97.257812 253.492188 99.035156 C 255.863281 100.8125 258.160156 102.679688 260.382812 104.644531 C 262.605469 106.605469 264.742188 108.65625 266.800781 110.789062 C 268.855469 112.925781 270.824219 115.140625 272.703125 117.433594 C 274.578125 119.726562 276.363281 122.09375 278.050781 124.53125 C 279.738281 126.964844 281.324219 129.46875 282.808594 132.03125 C 284.292969 134.597656 285.671875 137.21875 286.949219 139.894531 C 288.222656 142.570312 289.386719 145.296875 290.441406 148.066406 C 291.496094 150.835938 292.4375 153.644531 293.265625 156.492188 C 294.09375 159.335938 294.804688 162.210938 295.402344 165.117188 C 296 168.019531 296.476562 170.941406 296.839844 173.882812 C 297.199219 176.828125 297.441406 179.777344 297.5625 182.742188 C 297.6875 185.703125 297.691406 188.664062 297.574219 191.625 C 297.457031 194.589844 297.222656 197.539062 296.871094 200.484375 C 296.515625 203.425781 296.042969 206.351562 295.453125 209.253906 C 294.863281 212.160156 294.160156 215.039062 293.335938 217.886719 C 292.515625 220.734375 291.582031 223.542969 290.53125 226.316406 C 289.484375 229.089844 288.324219 231.816406 287.058594 234.496094 C 285.789062 237.175781 284.417969 239.796875 282.9375 242.367188 C 281.457031 244.9375 279.875 247.441406 278.195312 249.882812 C 276.511719 252.324219 274.738281 254.691406 272.863281 256.992188 C 270.992188 259.289062 269.03125 261.507812 266.976562 263.648438 C 264.925781 265.785156 262.792969 267.839844 260.574219 269.808594 C 258.359375 271.777344 256.066406 273.652344 253.699219 275.433594 C 251.328125 277.21875 248.894531 278.902344 246.390625 280.488281 C 243.886719 282.074219 241.320312 283.558594 238.699219 284.9375 C 236.074219 286.316406 233.398438 287.589844 230.671875 288.753906 C 227.945312 289.917969 225.179688 290.96875 222.367188 291.910156 C 219.554688 292.851562 216.710938 293.679688 213.835938 294.390625 C 210.957031 295.101562 208.054688 295.695312 205.128906 296.175781 C 202.203125 296.652344 199.265625 297.011719 196.308594 297.25 C 193.355469 297.492188 190.394531 297.613281 187.429688 297.617188 C 186.023438 297.617188 184.613281 297.617188 183.1875 297.535156 C 179.566406 297.402344 175.964844 297.09375 172.375 296.605469 C 168.789062 296.117188 165.230469 295.453125 161.710938 294.613281 C 158.1875 293.773438 154.714844 292.761719 151.292969 291.578125 C 147.867188 290.394531 144.511719 289.046875 141.222656 287.53125 C 137.933594 286.019531 134.726562 284.34375 131.605469 282.511719 C 128.480469 280.683594 125.453125 278.699219 122.523438 276.570312 C 119.597656 274.441406 116.78125 272.171875 114.078125 269.761719 C 111.375 267.351562 108.792969 264.816406 106.339844 262.152344 L 59.320312 318.691406 C 63.339844 322.621094 67.53125 326.355469 71.894531 329.898438 C 76.261719 333.441406 80.777344 336.773438 85.449219 339.898438 C 90.121094 343.023438 94.929688 345.925781 99.867188 348.609375 C 104.808594 351.292969 109.859375 353.738281 115.027344 355.957031 C 120.191406 358.171875 125.449219 360.144531 130.796875 361.875 C 136.144531 363.605469 141.5625 365.085938 147.046875 366.316406 C 152.53125 367.546875 158.058594 368.523438 163.632812 369.242188 C 169.210938 369.964844 174.804688 370.425781 180.421875 370.632812 C 182.78125 370.722656 185.136719 370.765625 187.480469 370.765625 C 285.59375 370.765625 366.914062 293.136719 370.664062 194.265625 C 370.808594 190.46875 370.835938 186.667969 370.746094 182.871094 C 370.65625 179.074219 370.449219 175.28125 370.125 171.496094 C 369.796875 167.707031 369.355469 163.9375 368.792969 160.179688 C 368.234375 156.421875 367.554688 152.683594 366.761719 148.96875 C 365.96875 145.25 365.0625 141.5625 364.039062 137.902344 C 363.019531 134.246094 361.882812 130.621094 360.636719 127.03125 C 359.386719 123.441406 358.03125 119.894531 356.5625 116.390625 C 355.09375 112.886719 353.519531 109.429688 351.835938 106.023438 C 350.152344 102.617188 348.363281 99.265625 346.472656 95.972656 C 344.582031 92.675781 342.589844 89.441406 340.496094 86.269531 C 338.402344 83.097656 336.214844 79.996094 333.929688 76.960938 C 331.644531 73.925781 329.265625 70.964844 326.796875 68.078125 C 324.324219 65.1875 321.769531 62.378906 319.125 59.652344 C 316.480469 56.925781 313.753906 54.28125 310.945312 51.722656 C 308.132812 49.164062 305.25 46.695312 302.285156 44.3125 C 299.324219 41.933594 296.289062 39.648438 293.1875 37.457031 Z M 293.1875 37.457031 "/><g clip-rule="nonzero" clip-path="url(#3154e5dd4f)"><g clip-rule="nonzero" clip-path="url(#d4db51bd2d)"><path style=" stroke:none;fill-rule:nonzero;fill:#fafaee;fill-opacity:1;" d="M 75.390625 75.390625 L 299.609375 75.390625 L 299.609375 299.609375 L 75.390625 299.609375 Z M 75.390625 75.390625 "/></g></g><g style="fill:#000000;fill-opacity:1;"><g transform="translate(126.75549, 261.477036)"><path style="stroke:none" d="M 62.53125 -27.96875 C 70.519531 -27.96875 76.34375 -29.429688 80 -32.359375 C 83.664062 -35.285156 85.5 -39.816406 85.5 -45.953125 C 85.5 -55.929688 78.175781 -60.921875 63.53125 -60.921875 L 55.328125 -60.921875 C 54.128906 -60.921875 53.53125 -60.320312 53.53125 -59.125 L 53.53125 -30.765625 C 53.53125 -29.566406 54.066406 -28.832031 55.140625 -28.5625 C 57.535156 -28.164062 60 -27.96875 62.53125 -27.96875 Z M 53.53125 -115.0625 L 53.53125 -90.6875 C 53.53125 -89.488281 54.128906 -88.890625 55.328125 -88.890625 L 59.53125 -88.890625 C 74.84375 -88.890625 82.5 -93.882812 82.5 -103.875 C 82.5 -113.195312 75.84375 -117.859375 62.53125 -117.859375 C 60 -117.859375 57.535156 -117.660156 55.140625 -117.265625 C 54.066406 -116.992188 53.53125 -116.257812 53.53125 -115.0625 Z M 88.703125 -76.703125 C 98.953125 -75.378906 107.140625 -71.453125 113.265625 -64.921875 C 119.390625 -58.398438 122.453125 -50.742188 122.453125 -41.953125 C 122.453125 -26.898438 117.554688 -15.8125 107.765625 -8.6875 C 97.984375 -1.5625 82.238281 2 60.53125 2 C 49.476562 2 37.957031 1.46875 25.96875 0.40625 C 22.769531 0.132812 20.070312 -1.226562 17.875 -3.6875 C 15.675781 -6.15625 14.578125 -9.054688 14.578125 -12.390625 L 14.578125 -133.4375 C 14.578125 -136.632812 15.640625 -139.5 17.765625 -142.03125 C 19.898438 -144.5625 22.566406 -145.960938 25.765625 -146.234375 C 37.085938 -147.296875 48.007812 -147.828125 58.53125 -147.828125 C 98.488281 -147.828125 118.46875 -135.175781 118.46875 -109.875 C 118.46875 -101.351562 115.769531 -94.128906 110.375 -88.203125 C 104.976562 -82.273438 97.753906 -78.578125 88.703125 -77.109375 C 88.566406 -77.109375 88.5 -77.039062 88.5 -76.90625 C 88.5 -76.769531 88.566406 -76.703125 88.703125 -76.703125 Z M 88.703125 -76.703125 "/></g></g></g></svg>